<?xml version="1.0" encoding="utf-8"?>
<!-- Generator: Adobe Illustrator 16.0.0, SVG Export Plug-In . SVG Version: 6.00 Build 0)  -->
<!DOCTYPE svg PUBLIC "-//W3C//DTD SVG 1.1//EN" "http://www.w3.org/Graphics/SVG/1.1/DTD/svg11.dtd">
<svg version="1.1" id="Ebene_1" xmlns="http://www.w3.org/2000/svg" xmlns:xlink="http://www.w3.org/1999/xlink" x="0px" y="0px"
	 width="286.3px" height="286.3px" viewBox="0 0 286.3 286.3" enable-background="new 0 0 286.3 286.3" xml:space="preserve">
<g id="_x2D_----_Artwork" display="none">
</g>
<g id="_x2D_----_Samples" display="none">
	<g id="Document" display="inline">
		<polygon fill="none" points="143.575,142.492 143.749,142.492 143.575,142.319 		"/>
		<path fill="#EFF9FE" d="M143.459,142.608v-0.291h-0.912v1.664h0.631l0.573-0.575l-0.002-0.799L143.459,142.608L143.459,142.608z
			 M142.962,143.408h-0.218v-0.055h0.218V143.408z M143.556,143.177h-0.812v-0.055h0.812V143.177z M143.556,142.947h-0.812v-0.055
			h0.812V142.947z"/>
		<polygon fill="#3D6480" points="142.547,143.982 142.547,142.318 143.459,142.318 143.459,142.608 143.75,142.608 
			143.751,143.407 143.867,143.3 143.865,142.609 143.749,142.492 143.575,142.492 143.575,142.319 143.458,142.202 
			142.431,142.202 142.431,144.097 143.053,144.097 143.178,143.982 		"/>
		<rect x="142.744" y="142.892" fill="#3D6480" width="0.812" height="0.055"/>
		<rect x="142.744" y="143.123" fill="#3D6480" width="0.812" height="0.055"/>
		<rect x="142.744" y="143.353" fill="#3D6480" width="0.218" height="0.055"/>
	</g>
	<g id="Script" display="inline">
		<path fill="#EFF9FE" d="M143.675,142.517h0.115v0.076h0.077c0.073,0,0.132-0.059,0.132-0.132c0-0.072-0.059-0.132-0.132-0.132
			h-0.999c-0.164,0-0.254,0.09-0.254,0.254v1.04h0.42v0.116h-0.644c-0.073,0-0.132,0.06-0.132,0.132s0.059,0.133,0.132,0.133h0.743
			l0.542-0.542V142.517L143.675,142.517z"/>
		<path fill="#3D6480" d="M142.259,143.871c0-0.072,0.059-0.132,0.132-0.132h0.644v-0.116h-0.42v-1.04
			c0-0.165,0.09-0.255,0.254-0.255h0.999c0.073,0,0.132,0.06,0.132,0.132c0,0.073-0.059,0.132-0.132,0.132h-0.077v-0.076h-0.115
			v0.945l0.115-0.116v-0.637h0.077c0.137,0,0.248-0.111,0.248-0.248c0-0.136-0.111-0.248-0.248-0.248h-0.999
			c-0.229,0-0.371,0.142-0.371,0.371v1.04h-0.107c-0.137,0-0.248,0.111-0.248,0.248s0.111,0.248,0.248,0.248h0.626l0.116-0.115
			h-0.743C142.318,144.003,142.259,143.943,142.259,143.871z"/>
	</g>
	<g id="Table" display="inline">
		<rect x="142.907" y="143.482" fill="none" width="0.505" height="0.46"/>
		<rect x="142.907" y="142.922" fill="none" width="0.505" height="0.505"/>
		<rect x="142.392" y="143.482" fill="none" width="0.46" height="0.46"/>
		<rect x="143.466" y="142.922" fill="none" width="0.445" height="0.505"/>
		<rect x="143.466" y="143.482" fill="none" width="0.445" height="0.46"/>
		<polygon fill="#EFF9FE" points="142.852,142.867 142.907,142.867 142.907,142.868 143.412,142.868 143.412,142.867 
			143.466,142.867 143.466,142.868 143.912,142.868 143.912,142.422 142.905,142.422 142.459,142.868 142.852,142.868 		"/>
		<path fill="#3D6480" d="M143.021,142.306l-0.116,0.116h1.007v0.445h-0.445v0h-0.054v0h-0.505v0h-0.055v0h-0.393l-0.055,0.055
			h0.448v0.505h-0.46v-0.492l-0.116,0.116v1.007h1.751v-1.752H143.021z M142.852,143.943h-0.46v-0.46h0.46V143.943z
			 M143.412,143.943h-0.505v-0.46h0.505V143.943z M143.412,143.428h-0.505v-0.505h0.505V143.428z M143.912,143.943h-0.445v-0.46
			h0.445V143.943z M143.912,143.428h-0.445v-0.505h0.445V143.428z"/>
	</g>
	<g id="Databaase" display="inline">
		<path fill="#FFECCE" d="M143.498,143.334c0.061-0.014,0.106-0.032,0.134-0.051v-0.354c-0.151,0.076-0.459,0.081-0.537,0.081
			c-0.16,0-0.31-0.015-0.423-0.041c-0.051-0.012-0.093-0.026-0.125-0.043v0.356c0.072,0.048,0.268,0.091,0.548,0.091
			C143.25,143.373,143.393,143.359,143.498,143.334z"/>
		<path fill="#FFECCE" d="M143.095,143.427c-0.16,0-0.31-0.014-0.423-0.041c-0.051-0.012-0.093-0.026-0.125-0.042v0.339
			c0,0.041,0.193,0.119,0.548,0.119l0,0c0.102,0,0.198-0.008,0.282-0.021l0.255-0.255v-0.181
			C143.48,143.422,143.173,143.427,143.095,143.427z"/>
		<path fill="#FFECCE" d="M143.095,142.955c0.155,0,0.297-0.014,0.403-0.039c0.061-0.015,0.106-0.032,0.134-0.051v-0.331
			c-0.151,0.076-0.459,0.081-0.536,0.081c-0.161,0-0.311-0.015-0.423-0.041c-0.051-0.012-0.093-0.026-0.125-0.043v0.333
			C142.619,142.913,142.815,142.955,143.095,142.955z"/>
		<path fill="#FFECCE" d="M143.632,142.47v-0.051c-0.013-0.036-0.208-0.101-0.549-0.101c-0.338,0-0.526,0.065-0.536,0.101v0.051
			c0.072,0.049,0.268,0.091,0.548,0.091C143.369,142.561,143.561,142.519,143.632,142.47z"/>
		<path fill="#3D6480" d="M143.095,143.802L143.095,143.802c-0.354,0-0.548-0.078-0.548-0.119v-0.339
			c0.033,0.016,0.074,0.03,0.125,0.042c0.113,0.026,0.263,0.041,0.423,0.041c0.078,0,0.385-0.005,0.537-0.081v0.181l0.116-0.116
			v-0.992c0-0.201-0.509-0.217-0.665-0.217c-0.196,0-0.652,0.021-0.652,0.217v1.264c0,0.224,0.553,0.234,0.664,0.234l0,0
			c0.052,0,0.103-0.002,0.151-0.006l0.13-0.129C143.293,143.794,143.197,143.802,143.095,143.802z M142.547,142.419
			c0.01-0.036,0.198-0.101,0.536-0.101c0.341,0,0.536,0.065,0.549,0.101v0.051c-0.071,0.049-0.263,0.09-0.536,0.09
			c-0.281,0-0.477-0.042-0.549-0.09V142.419L142.547,142.419z M142.672,142.575c0.113,0.026,0.263,0.041,0.423,0.041
			c0.077,0,0.385-0.005,0.536-0.081v0.331c-0.028,0.019-0.073,0.037-0.134,0.051c-0.105,0.025-0.248,0.039-0.403,0.039
			c-0.28,0-0.477-0.042-0.548-0.09v-0.333C142.58,142.548,142.621,142.562,142.672,142.575z M142.547,142.926
			c0.033,0.017,0.074,0.031,0.125,0.043c0.113,0.026,0.263,0.041,0.423,0.041c0.078,0,0.385-0.005,0.537-0.081v0.354
			c-0.028,0.02-0.073,0.037-0.134,0.051c-0.105,0.025-0.249,0.039-0.403,0.039c-0.28,0-0.477-0.042-0.548-0.091V142.926
			L142.547,142.926z"/>
	</g>
</g>
<g id="_x2D_----_Action_Indicators" display="none">
	<g id="Wait" display="inline">
		<g>
			<polygon fill="#3D6480" points="143.988,143.735 143.988,143.923 144.108,144.042 144.036,144.115 143.885,143.964 
				143.885,143.735 			"/>
			<path fill="#3D6480" d="M143.943,143.508c0.239,0,0.434,0.195,0.434,0.435c0,0.239-0.194,0.434-0.434,0.434
				c-0.24,0-0.435-0.194-0.435-0.434C143.508,143.703,143.703,143.508,143.943,143.508z M143.943,143.61
				c-0.184,0-0.333,0.149-0.333,0.333s0.149,0.332,0.333,0.332s0.332-0.148,0.332-0.332S144.126,143.61,143.943,143.61z"/>
		</g>
	</g>
	<g id="Validate" display="inline">
		<g>
			<polygon fill="#0CB20F" points="143.806,144.382 143.556,144.131 143.648,144.041 143.806,144.199 144.279,143.727 
				144.371,143.819 			"/>
		</g>
	</g>
	<g id="Upsert" display="inline">
		<g>
			<path fill="#0CB20F" d="M142.392,142.722h-0.13v-0.465c0-0.13-0.105-0.236-0.235-0.236h-0.043v-0.129h0.043
				c0.201,0,0.365,0.164,0.365,0.365V142.722z"/>
			<polygon fill="#0CB20F" points="142.327,142.813 142.038,142.524 142.129,142.433 142.327,142.63 142.525,142.433 
				142.617,142.524 			"/>
		</g>
	</g>
	<g id="Update" display="inline">
		<g>
			<path fill="#0CB20F" d="M144.138,144.273c-0.08,0.061-0.179,0.097-0.286,0.097c-0.256,0-0.464-0.205-0.47-0.46h-0.113
				l0.178-0.249l0.178,0.249h-0.122c0.008,0.186,0.161,0.336,0.348,0.336c0.079,0,0.151-0.027,0.21-0.071L144.138,144.273z"/>
			<path fill="#0CB20F" d="M143.543,143.562c0.079-0.061,0.177-0.096,0.285-0.096c0.257,0,0.465,0.205,0.471,0.46h0.112
				l-0.178,0.249l-0.178-0.249h0.122c-0.008-0.186-0.161-0.335-0.35-0.335c-0.078,0-0.15,0.026-0.209,0.071L143.543,143.562z"/>
		</g>
	</g>
	<g id="Search__x2F__Lookup__x2F__Exists" display="inline">
		<g>
			<path fill="#3D6480" d="M143.905,144.216c-0.183,0-0.331-0.148-0.331-0.331s0.148-0.331,0.331-0.331s0.331,0.148,0.331,0.331
				S144.087,144.216,143.905,144.216z M143.905,143.657c-0.126,0-0.229,0.103-0.229,0.229s0.104,0.229,0.229,0.229
				s0.229-0.104,0.229-0.229S144.031,143.657,143.905,143.657z"/>
			
				<rect x="144.08" y="144.15" transform="matrix(-0.7071 -0.7071 0.7071 -0.7071 144.2452 348.177)" fill="#3D6480" width="0.305" height="0.129"/>
		</g>
	</g>
	<g id="Set" display="inline">
		<g>
			<polygon fill="#3D6480" points="143.8,144.273 143.588,144.061 143.679,143.969 143.8,144.09 144.177,143.714 144.269,143.806 
							"/>
			<path fill="#3D6480" d="M144.353,144.411h-0.849v-0.848h0.849V144.411z M143.559,144.356h0.74v-0.739h-0.74V144.356z"/>
		</g>
	</g>
	<g id="Move" display="inline">
		<g>
			<rect x="143.558" y="143.943" fill="#3D6480" width="0.703" height="0.116"/>
			<polygon fill="#3D6480" points="144.095,144.25 144.013,144.167 144.179,144.002 144.011,143.834 144.093,143.752 
				144.343,144.002 			"/>
		</g>
	</g>
	<g id="Output__x2F__Upload__x2F__Export__x2F__Insert__x2F__Put__x2F__Write" display="inline">
		<path fill="none" d="M144.376,141.752h-2.454c-0.094,0-0.17,0.077-0.17,0.17v2.454c0,0.094,0.077,0.171,0.17,0.171h2.454
			c0.094,0,0.171-0.077,0.171-0.171v-2.454C144.547,141.829,144.47,141.752,144.376,141.752z M142.518,142.522h-0.436v-0.13h0.214
			l-0.356-0.356l0.091-0.092l0.356,0.356v-0.21h0.129V142.522z"/>
		<polygon fill="#3D6480" points="142.389,142.301 142.032,141.944 141.941,142.036 142.297,142.392 142.083,142.392 
			142.083,142.522 142.518,142.522 142.518,142.09 142.389,142.09 		"/>
	</g>
	<g id="Input__x2F__Import__x2F__Get__x2F__Download__x2F__Extract__x2F__Read" display="inline">
		<polygon fill="#3D6480" points="144.241,143.968 144.241,144.154 143.888,143.796 143.798,143.886 144.157,144.241 
			143.968,144.241 143.968,144.376 144.376,144.376 144.376,143.968 		"/>
	</g>
	<g id="Bulk_Load" display="inline">
		<polygon fill="#FFEBCD" points="144.417,143.767 144.339,143.653 144.339,143.592 143.983,143.444 143.861,143.567 
			143.74,143.444 143.386,143.594 143.386,143.652 143.286,143.781 143.386,143.833 143.386,144.15 143.863,144.391 144.339,144.15 
			144.339,143.811 		"/>
		<path fill="#3D6480" d="M144.337,143.587l-0.271-0.114l-0.025,0.059l0.184,0.077l-0.361,0.188l-0.367-0.186l0.175-0.073
			l-0.024-0.059l-0.259,0.108l-0.151,0.205l0.151,0.078v0.279l0.475,0.239l0.475-0.239v-0.301l0.127-0.069L144.337,143.587z
			 M143.42,143.608L143.42,143.608L143.42,143.608L143.42,143.608L143.42,143.608z M143.334,143.77l0.095-0.122l0.381,0.192
			l-0.095,0.128L143.334,143.77z M143.452,143.903l0.282,0.147l0.105-0.144v0.399l-0.388-0.196V143.903z M144.274,144.11
			l-0.404,0.204v-0.428l0.108,0.161l0.296-0.163V144.11L144.274,144.11z M143.999,143.963l-0.083-0.123l0.38-0.196l0.077,0.112
			L143.999,143.963z"/>
		<path fill="#0CB20F" d="M144.001,143.413l-0.106,0.106v-0.118c0-0.191-0.083-0.277-0.268-0.277v0.071
			c0.147,0,0.196,0.052,0.196,0.206v0.119l-0.112-0.112l-0.05,0.05l0.197,0.198l0.193-0.193L144.001,143.413z"/>
	</g>
	<g id="Generator__x2F__Processor" display="inline">
		<g>
			<path fill="#3D6480" stroke="#3D6480" stroke-width="1.3" stroke-miterlimit="3.8637" d="M143.947,144.299l-0.023,0.077
				c-0.014,0-0.027-0.002-0.04-0.004l-0.009-0.084c-0.002-0.012-0.01-0.022-0.022-0.026c-0.025-0.009-0.05-0.021-0.071-0.036
				c-0.012-0.008-0.025-0.008-0.037-0.001l-0.011,0.008l-0.066,0.03l-0.011-0.01l-0.01-0.012l0.049-0.07
				c0.006-0.011,0.006-0.024,0-0.035c-0.015-0.023-0.025-0.048-0.032-0.073c-0.003-0.013-0.014-0.022-0.027-0.024l-0.082-0.01
				c-0.001-0.014-0.002-0.026-0.002-0.04l0.081-0.024c0.012-0.003,0.021-0.014,0.022-0.025c0.004-0.026,0.012-0.053,0.022-0.077
				c0.006-0.012,0.004-0.025-0.006-0.034l-0.055-0.061c0.007-0.012,0.016-0.022,0.024-0.033l0.078,0.034
				c0.011,0.005,0.023,0.003,0.033-0.006c0.021-0.019,0.043-0.034,0.066-0.045c0.012-0.006,0.019-0.018,0.018-0.03l-0.004-0.082
				c0.014-0.003,0.027-0.006,0.041-0.009l0.037,0.075c0.005,0.012,0.017,0.018,0.029,0.018c0.026,0,0.054,0.003,0.08,0.01
				c0.012,0.003,0.025-0.002,0.033-0.012l0.049-0.065c0.013,0.005,0.025,0.011,0.037,0.018l-0.02,0.081
				c-0.004,0.013,0.001,0.025,0.012,0.032c0.01,0.01,0.02,0.02,0.029,0.029s0.019,0.02,0.025,0.029
				c0.008,0.011,0.021,0.016,0.033,0.013l0.08-0.019c0.006,0.013,0.012,0.024,0.016,0.037l-0.068,0.05
				c-0.01,0.007-0.014,0.021-0.012,0.032c0.006,0.026,0.008,0.054,0.005,0.08c-0.001,0.014,0.005,0.025,0.017,0.032l0.073,0.036
				c-0.003,0.014-0.007,0.027-0.012,0.039l-0.083-0.004c-0.012-0.002-0.023,0.005-0.03,0.016c-0.013,0.023-0.028,0.045-0.048,0.064
				c-0.009,0.01-0.012,0.023-0.007,0.035l0.032,0.074c-0.011,0.009-0.021,0.018-0.033,0.023l-0.061-0.057
				c-0.01-0.01-0.023-0.012-0.035-0.008c-0.025,0.011-0.053,0.017-0.078,0.02C143.96,144.278,143.951,144.287,143.947,144.299z"/>
			<circle fill="#FFFFFF" cx="143.94" cy="143.987" r="0.245"/>
		</g>
	</g>
	<g id="Execute___x2F__Call" display="inline">
		<g>
			<path fill="none" d="M141.718,141.923c0-0.113,0.092-0.205,0.205-0.205h2.454c0.113,0,0.205,0.092,0.205,0.205v2.454
				c0,0.113-0.092,0.205-0.205,0.205h-2.454c-0.113,0-0.205-0.092-0.205-0.205"/>
			<path fill="#0CB20F" d="M143.59,144.38v-0.759l0.813,0.38L143.59,144.38z M143.716,143.82v0.361l0.389-0.18L143.716,143.82z"/>
		</g>
	</g>
	<g id="Delete" display="inline">
		<g>
			
				<line fill="none" stroke="#EA102A" stroke-width="1.9" stroke-miterlimit="3.8637" x1="143.851" y1="143.839" x2="144.338" y2="144.327"/>
			
				<line fill="none" stroke="#EA102A" stroke-width="1.9" stroke-miterlimit="3.8637" x1="143.851" y1="144.327" x2="144.338" y2="143.839"/>
		</g>
	</g>
	<g id="Decrypt" display="inline">
		<g>
			<path fill="#3D6480" d="M144.376,143.822v0.555h-0.664v-0.555H144.376z M144.275,143.924h-0.459v0.351h0.459V143.924z"/>
			<path fill="#3D6480" d="M143.394,143.858v-0.109c0-0.154,0.112-0.257,0.25-0.257c0.137,0,0.25,0.103,0.25,0.257v0.124h-0.103
				v-0.124c0-0.097-0.065-0.154-0.147-0.154s-0.147,0.058-0.147,0.154v0.109H143.394z"/>
			<rect x="144.011" y="144.045" fill="#3D6480" width="0.068" height="0.108"/>
		</g>
	</g>
	<g id="Encrypt" display="inline">
		<g>
			<path fill="#3D6480" d="M144.376,143.822v0.555h-0.664v-0.555H144.376z M144.275,143.924h-0.46v0.351h0.46V143.924z"/>
			<path fill="#3D6480" d="M143.795,143.858v-0.109c0-0.154,0.112-0.257,0.249-0.257c0.139,0,0.25,0.103,0.25,0.257v0.124h-0.102
				v-0.124c0-0.097-0.066-0.154-0.148-0.154c-0.081,0-0.146,0.058-0.146,0.154v0.109H143.795z"/>
			<rect x="144.011" y="144.045" fill="#3D6480" width="0.068" height="0.108"/>
		</g>
	</g>
	<g id="Create" display="inline">
		<g>
			<path fill="#FF9C04" d="M143.964,144.089h0.037l0.027,0.026l0.027-0.026h0.037v-0.038l0.027-0.026l-0.027-0.027v-0.038h-0.037
				l-0.027-0.026l-0.027,0.026h-0.037v0.038l-0.027,0.027l0.027,0.026V144.089z M144.251,143.894l-0.066,0.065h0.188v0.13h-0.188
				l0.065,0.065l-0.091,0.091l-0.066-0.064v0.188h-0.129v-0.188l-0.065,0.064l-0.092-0.092l0.065-0.064h-0.188v-0.13h0.188
				l-0.066-0.065l0.092-0.092l0.066,0.066v-0.188h0.129v0.188l0.066-0.066L144.251,143.894z"/>
		</g>
	</g>
	<g id="Compare" display="inline">
		<g>
			<polygon fill="#3D6480" points="143.701,144.373 143.356,144.027 143.701,143.683 143.792,143.775 143.54,144.027 
				143.792,144.281 			"/>
			<polygon fill="#3D6480" points="144.041,144.373 143.949,144.281 144.201,144.029 143.948,143.775 144.039,143.683 
				144.384,144.029 			"/>
			<rect x="143.448" y="143.963" fill="#3D6480" width="0.844" height="0.13"/>
		</g>
	</g>
	<g id="Block" display="inline">
		<g>
			<path fill="#EC0800" d="M144.007,144.37c-0.18,0-0.325-0.146-0.325-0.325c0-0.18,0.146-0.326,0.325-0.326
				s0.326,0.146,0.326,0.326C144.333,144.223,144.187,144.37,144.007,144.37z M144.007,143.8c-0.134,0-0.243,0.109-0.243,0.244
				c0,0.134,0.109,0.243,0.243,0.243c0.135,0,0.244-0.109,0.244-0.243C144.251,143.91,144.142,143.8,144.007,143.8z"/>
			
				<rect x="143.7" y="143.996" transform="matrix(-0.7071 -0.7071 0.7071 -0.7071 143.9583 347.7027)" fill="#EC0800" width="0.581" height="0.081"/>
		</g>
	</g>
</g>
<g id="Swatches" display="none">
</g>
<g id="MatchUp" display="none">
	<g id="V3_5_" display="inline">
		<g>
			<path fill="#EEF8FD" d="M191.732,82.085c18.795,0,34.031,15.488,34.031,34.284c0,11.759-5.963,22.626-15.031,28.74
				c22.912,9.24,40.037,42.024,42.807,66.699h-88.201c-1.381-12.338-6.559-33.15-14.947-46.065l-1.676-3.567
				c6.737-8.122,14.915-14.337,24.015-18.008c-9.067-6.113-15.032-16.416-15.032-28.174
				C157.697,97.197,172.935,82.085,191.732,82.085 M191.732,76.632c-5.326,0-10.494,1.036-15.36,3.08
				c-2.341,0.984-4.599,2.201-6.71,3.618c-2.09,1.404-4.057,3.017-5.843,4.794c-1.787,1.778-3.409,3.735-4.823,5.818
				c-1.428,2.104-2.654,4.356-3.645,6.692c-2.062,4.861-3.108,10.028-3.108,15.357c0,3.343,0.42,6.662,1.247,9.867
				c0.804,3.112,1.993,6.124,3.535,8.95c1.514,2.772,3.364,5.365,5.502,7.707c0.126,0.137,0.252,0.274,0.38,0.409
				c-2.177,1.266-4.297,2.674-6.35,4.218c-4.343,3.268-8.394,7.154-12.04,11.549l-2.21,2.665l1.471,3.134l1.675,3.568l0.16,0.339
				l0.203,0.314c8.164,12.566,12.906,33.021,14.103,43.702l0.542,4.846h4.877h88.2h6.1l-0.681-6.061
				c-1.5-13.365-6.82-28.435-14.598-41.344c-4.144-6.88-8.805-12.868-13.852-17.799c-3.267-3.191-6.652-5.895-10.126-8.084
				c2.37-2.546,4.423-5.429,6.085-8.564c3.107-5.862,4.75-12.447,4.75-19.041c0-5.326-1.043-10.507-3.101-15.4
				c-0.989-2.351-2.212-4.619-3.634-6.743c-1.41-2.104-3.029-4.083-4.811-5.883c-1.785-1.803-3.748-3.44-5.834-4.867
				c-2.112-1.444-4.37-2.685-6.711-3.688C202.245,77.693,197.064,76.632,191.732,76.632L191.732,76.632z"/>
		</g>
		<g>
			<path fill="#EEF8FD" d="M95.347,81.897c18.796,0,34.032,15.3,34.032,34.096c0,11.759-5.963,22.25-15.031,28.363
				c9.1,3.669,17.279,10.166,24.016,18.289l-1.675,3.082c-8.39,12.915-13.567,33.743-14.949,46.081h-88.2
				c2.77-24.675,19.894-57.443,42.805-66.684c-9.068-6.113-15.033-17.466-15.033-29.226C61.312,97.103,76.551,81.897,95.347,81.897
				 M95.347,76.443c-5.328,0-10.499,1.043-15.369,3.099c-2.341,0.988-4.599,2.212-6.71,3.636c-2.09,1.41-4.055,3.029-5.841,4.812
				c-1.786,1.784-3.408,3.747-4.82,5.834c-1.427,2.11-2.652,4.366-3.643,6.706c-2.061,4.869-3.106,10.04-3.106,15.368
				c0,6.609,1.634,13.261,4.726,19.236c1.685,3.256,3.759,6.229,6.145,8.832c-3.484,2.194-6.882,4.902-10.16,8.104
				c-5.047,4.93-9.708,10.916-13.851,17.793c-7.777,12.906-13.098,27.973-14.598,41.337l-0.68,6.061h6.1h88.2h4.877l0.542-4.846
				c1.197-10.689,5.94-31.153,14.102-43.718l0.116-0.179l0.102-0.188l1.675-3.082l1.763-3.244l-2.357-2.842
				c-3.687-4.445-7.722-8.366-11.993-11.654c-2.097-1.614-4.25-3.075-6.446-4.375c2.315-2.477,4.319-5.253,5.939-8.25
				c1.538-2.846,2.724-5.875,3.526-9.004c0.826-3.22,1.245-6.546,1.245-9.887c0-5.328-1.044-10.502-3.104-15.379
				c-0.99-2.343-2.214-4.604-3.64-6.718c-1.411-2.093-3.032-4.062-4.816-5.851c-1.785-1.79-3.75-3.415-5.839-4.831
				c-2.111-1.431-4.369-2.66-6.709-3.653C105.851,77.493,100.677,76.443,95.347,76.443L95.347,76.443z"/>
		</g>
		<g>
			<path fill="#EEF8FD" d="M143.539,171.179c7.363,11.332,12.238,28.291,13.61,40.629h-27.22
				C131.301,199.47,136.177,182.511,143.539,171.179 M143.539,161.17l-4.573,7.038c-3.688,5.677-7.032,13.021-9.671,21.242
				c-2.335,7.274-4.035,15-4.786,21.755l-0.673,6.056h6.093h27.22h6.093l-0.673-6.056c-0.751-6.754-2.45-14.48-4.786-21.755
				c-2.639-8.22-5.982-15.564-9.67-21.242L143.539,161.17L143.539,161.17z"/>
		</g>
	</g>
	<g id="V1" display="inline">
		<polygon fill="#EEF8FD" points="28.153,217.929 259.443,217.929 246.069,171.576 223.382,143.15 231.562,109.407 218.474,83.231 
			184.119,75.051 161.214,94.138 151.943,119.769 161.759,143.15 143.15,159.033 124.677,143.15 134.493,119.224 128.494,93.047 
			102.863,75.051 66.872,84.322 54.874,106.135 63.054,143.15 47.785,161.759 28.153,198.296 		"/>
		<path fill="#3D6380" d="M265.053,210.509c-1.595-14.212-7.223-30.182-15.439-43.822c-4.413-7.325-9.399-13.723-14.819-19.019
			c-1.827-1.784-3.693-3.432-5.593-4.939c0.973-1.425,1.87-2.91,2.685-4.446c1.758-3.316,3.115-6.841,4.036-10.478
			c0.947-3.742,1.428-7.59,1.428-11.436c0-3.085-0.312-6.176-0.925-9.186c-0.6-2.936-1.492-5.827-2.655-8.592
			c-1.141-2.713-2.552-5.33-4.192-7.78c-1.626-2.426-3.492-4.708-5.547-6.784c-2.059-2.079-4.322-3.969-6.731-5.615
			c-2.44-1.668-5.05-3.103-7.755-4.263c-2.765-1.186-5.657-2.096-8.598-2.707c-3.017-0.626-6.117-0.944-9.215-0.944
			c-6.146,0-12.113,1.198-17.736,3.559c-2.705,1.137-5.314,2.543-7.753,4.181c-2.415,1.622-4.687,3.485-6.75,5.538
			c-2.065,2.054-3.94,4.316-5.573,6.723c-1.65,2.434-3.069,5.039-4.216,7.741c-1.169,2.755-2.065,5.639-2.667,8.573
			c-0.615,3.003-0.928,6.091-0.928,9.18c0,3.859,0.484,7.695,1.441,11.4c0.93,3.601,2.307,7.085,4.091,10.355
			c0.696,1.276,1.454,2.519,2.271,3.724c-0.349,0.253-0.697,0.51-1.043,0.77c-4.213,3.171-7.252,6.13-9.543,8.551
			c-2.349-2.467-5.171-5.186-9.015-8.145c-0.409-0.314-0.819-0.624-1.231-0.928c0.857-1.266,1.652-2.575,2.379-3.92
			c1.775-3.285,3.146-6.783,4.072-10.396c0.954-3.717,1.437-7.557,1.437-11.412c0-3.087-0.312-6.176-0.926-9.183
			c-0.6-2.935-1.496-5.822-2.661-8.583c-1.144-2.708-2.558-5.318-4.204-7.76c-1.629-2.417-3.5-4.689-5.559-6.754
			c-2.061-2.066-4.329-3.942-6.741-5.577c-2.439-1.653-5.048-3.074-7.754-4.222c-2.76-1.171-5.648-2.071-8.584-2.674
			c-3.008-0.618-6.1-0.931-9.19-0.931c-3.086,0-6.174,0.311-9.178,0.924c-2.934,0.599-5.819,1.493-8.577,2.658
			c-2.706,1.143-5.314,2.556-7.754,4.201c-2.414,1.628-4.683,3.498-6.745,5.558c-2.062,2.06-3.936,4.327-5.566,6.738
			c-1.649,2.438-3.065,5.046-4.21,7.75c-1.167,2.758-2.064,5.644-2.665,8.578c-0.615,3.004-0.927,6.094-0.927,9.182
			c0,7.586,1.872,15.213,5.413,22.055c0.85,1.644,1.788,3.225,2.806,4.737c-1.923,1.521-3.81,3.187-5.658,4.992
			c-5.42,5.293-10.406,11.691-14.819,19.015c-8.217,13.636-13.845,29.601-15.44,43.812l-1.446,12.873h12.961h83.441h0.001h12.946
			h27.22h12.946h0.001h83.441h12.961L265.053,210.509z M127.926,175.833c-1.64,3.657-3.144,7.608-4.471,11.743
			c-2.457,7.652-4.247,15.804-5.042,22.952l-0.141,1.267H33.541l0,0c0.558-4.968,1.697-10.263,3.348-15.627
			c0.1-0.324,0.201-0.648,0.304-0.972c0.112-0.351,0.225-0.7,0.341-1.052c6.833-20.664,21.091-41.881,38.812-49.027
			c-0.463-0.312-0.932-0.638-1.378-0.977c-8.298-6.296-13.686-17.082-13.686-28.241c0-0.001,0-0.001,0-0.002s0-0.001,0-0.002
			c0-18.796,15.254-34,34.05-34s34.039,15.301,34.039,34.097c0,0.184,0.002,0.367,0,0.551c-0.183,11.536-6.099,21.795-15.024,27.812
			c0.039,0.016,0.078,0.033,0.116,0.049c0.166,0.066,0.332,0.135,0.497,0.204c0.068,0.028,0.137,0.058,0.205,0.086
			c0.188,0.079,0.375,0.161,0.561,0.243c0.07,0.03,0.14,0.061,0.21,0.092c0.188,0.084,0.376,0.169,0.564,0.256
			c0.062,0.027,0.123,0.057,0.184,0.085c0.176,0.081,0.353,0.165,0.528,0.249c0.053,0.025,0.106,0.051,0.16,0.076
			c0.184,0.088,0.368,0.179,0.551,0.27c0.052,0.026,0.104,0.052,0.156,0.078c0.197,0.099,0.394,0.199,0.59,0.301
			c0.051,0.025,0.102,0.053,0.153,0.079c0.201,0.104,0.402,0.211,0.603,0.319c0.036,0.02,0.072,0.039,0.108,0.059
			c0.439,0.237,0.876,0.481,1.311,0.732c0.021,0.012,0.042,0.024,0.064,0.037c0.218,0.126,0.436,0.254,0.652,0.384
			c0.019,0.011,0.038,0.022,0.056,0.034c5.531,3.314,10.618,7.674,15.119,12.754l-2.911,4.125
			C131.726,168.093,129.742,171.783,127.926,175.833z M129.929,211.793c1.372-12.338,6.248-29.296,13.61-40.628
			c7.363,11.332,12.238,28.29,13.61,40.628H129.929z M253.538,211.793h-84.731l-0.141-1.266c-0.795-7.148-2.586-15.3-5.042-22.952
			c-1.327-4.135-2.831-8.086-4.472-11.743c-1.815-4.05-3.799-7.739-5.896-10.966l-3.146-4.32c0.27-0.305,0.54-0.609,0.814-0.908l0,0
			c0.021-0.023,0.04-0.045,0.062-0.066c0.169-0.186,0.339-0.369,0.51-0.553c0.024-0.025,0.049-0.051,0.072-0.076
			c0.967-1.03,1.959-2.023,2.975-2.979c0.014-0.012,0.026-0.024,0.039-0.037c0.178-0.166,0.355-0.33,0.535-0.494
			c0.043-0.039,0.085-0.079,0.127-0.117c0.168-0.152,0.335-0.304,0.504-0.454c0.055-0.049,0.109-0.099,0.164-0.147
			c0.162-0.145,0.326-0.287,0.49-0.43c0.06-0.053,0.12-0.104,0.181-0.156c0.162-0.141,0.325-0.279,0.488-0.418
			c0.06-0.051,0.12-0.102,0.181-0.152c0.166-0.139,0.332-0.277,0.5-0.415c0.052-0.042,0.104-0.085,0.155-0.127
			c0.178-0.145,0.355-0.29,0.534-0.433c0.008-0.006,0.015-0.011,0.021-0.017c0.602-0.479,1.211-0.946,1.826-1.4
			c0.064-0.048,0.131-0.097,0.195-0.146c0.152-0.11,0.305-0.219,0.456-0.328c0.09-0.064,0.179-0.129,0.269-0.193
			c0.145-0.102,0.288-0.202,0.432-0.303c0.1-0.069,0.2-0.139,0.301-0.207c0.139-0.096,0.277-0.191,0.418-0.285
			c0.106-0.072,0.213-0.144,0.32-0.215c0.137-0.09,0.272-0.181,0.408-0.27c0.113-0.074,0.226-0.146,0.338-0.219
			c0.134-0.086,0.268-0.172,0.4-0.256c0.119-0.075,0.238-0.149,0.357-0.223c0.129-0.081,0.259-0.162,0.389-0.241
			c0.131-0.08,0.262-0.158,0.393-0.236c0.119-0.072,0.239-0.146,0.359-0.216c0.244-0.145,0.488-0.286,0.733-0.426
			c0.099-0.057,0.198-0.111,0.296-0.166c0.158-0.09,0.316-0.178,0.475-0.266c0.111-0.061,0.224-0.121,0.336-0.182
			c0.146-0.08,0.293-0.159,0.441-0.237c0.115-0.062,0.23-0.12,0.346-0.181c0.146-0.076,0.291-0.151,0.438-0.227
			c0.117-0.059,0.232-0.117,0.35-0.176c0.147-0.073,0.295-0.146,0.443-0.219c0.115-0.057,0.23-0.113,0.346-0.168
			c0.151-0.073,0.303-0.145,0.455-0.217c0.113-0.053,0.226-0.105,0.339-0.158c0.159-0.072,0.319-0.145,0.479-0.217
			c0.106-0.048,0.213-0.096,0.319-0.144c0.178-0.078,0.355-0.154,0.533-0.231c0.09-0.038,0.18-0.077,0.27-0.115
			c0.266-0.113,0.533-0.223,0.801-0.331c0.002-0.001,0.004-0.002,0.007-0.003c-0.077-0.052-0.152-0.104-0.229-0.156
			c-0.123-0.084-0.245-0.17-0.368-0.256c-0.169-0.12-0.338-0.241-0.505-0.363c-8.446-6.188-13.932-16.123-13.932-27.399
			c0-0.293,0.004-0.586,0.011-0.878c0.467-18.387,15.523-33.031,34.027-33.031c18.796,0,34.033,15.486,34.033,34.282
			c0,0,0,0.001,0,0.001c0,0.001,0,0.001,0,0.002c0,10.993-5.215,21.2-13.303,27.478c-0.563,0.438-1.141,0.856-1.732,1.254
			C233.645,154.341,250.769,187.117,253.538,211.793L253.538,211.793z"/>
	</g>
</g>
<g id="ContactVerify" display="none">
	<g id="V1_5_" display="inline">
		<g>
			
				<line fill="none" stroke="#3D6380" stroke-width="79.9939" stroke-miterlimit="10" x1="231.328" y1="66.549" x2="142.717" y2="66.549"/>
			
				<line fill="none" stroke="#3D6380" stroke-width="79.9939" stroke-miterlimit="10" x1="231.328" y1="84.749" x2="142.717" y2="84.749"/>
			
				<line fill="none" stroke="#3D6380" stroke-width="79.9939" stroke-miterlimit="10" x1="204.062" y1="121.15" x2="115.453" y2="121.15"/>
			
				<line fill="none" stroke="#3D6380" stroke-width="79.9939" stroke-miterlimit="10" x1="231.328" y1="102.95" x2="142.717" y2="102.95"/>
		</g>
		<g>
			<g>
				<path fill="#EEF8FD" d="M36.589,238.174l0.456-6.191c0.553-7.544,1.646-14.327,2.736-19.439h-0.169l0.88-3.12
					c0.449-1.825,0.876-3.314,1.241-4.389c2.262-7.953,5.237-15.626,8.844-22.803c3.618-7.197,7.863-13.884,12.617-19.87
					c4.832-6.084,10.18-11.435,15.896-15.903c3.256-2.544,6.632-4.803,10.099-6.758c-2.279-2.18-4.61-4.834-6.724-8.064
					c-5.378-8.219-8.197-18.369-8.357-30.167l-0.012-0.04v-0.04c0-3.949,0.464-7.889,1.356-11.709
					c0.868-3.715,2.163-7.342,3.837-10.779c1.643-3.372,3.666-6.575,6.007-9.521c2.326-2.925,4.976-5.604,7.873-7.961l0.025-0.02
					c4.463-3.59,9.448-6.388,14.815-8.316c5.56-1.997,11.4-3.01,17.357-3.01c8.669,0,16.557,1.625,23.443,4.829
					c6.29,2.927,11.705,7.141,16.096,12.526c3.892,4.772,6.889,10.343,8.908,16.557c1.797,5.525,2.764,11.508,2.799,17.302v0.034
					c0,14.014-5.677,27.56-15.238,37.205c3.518,1.955,6.94,4.21,10.236,6.747c5.728,4.41,11.078,9.675,15.902,15.649
					c4.766,5.902,9.016,12.493,12.632,19.589c3.633,7.13,6.623,14.766,8.888,22.697c1.066,3.732,2.59,11.152,2.885,12.602
					l0.014,0.066l0.01,0.05c0.418,2.262,1.606,14.28,1.747,15.997l0.514,6.251H36.589L36.589,238.174z"/>
				<path fill="#3D6380" d="M125.37,55.868c32.979,0,45.333,25.44,45.451,45.454c0,15.705-7.965,30.366-20.075,38.531
					c24.471,9.869,43.987,34.376,52.719,64.948c1.08,3.781,2.766,12.09,2.78,12.162c0.341,1.846,1.503,13.373,1.671,15.418H42.823
					c0.928-12.611,3.373-22.563,4.453-25.631h-0.002c8.733-30.812,28.248-55.961,52.717-65.831
					c-7.366-4.967-19.745-15.055-20.077-39.525c0-14.288,6.605-27.089,16.915-35.478C104.634,59.637,114.554,55.868,125.37,55.868
					 M125.37,44.28c-6.627,0-13.126,1.127-19.316,3.351c-5.975,2.146-11.522,5.259-16.488,9.254l-0.025,0.02l-0.025,0.02
					c-3.221,2.621-6.165,5.599-8.75,8.85c-2.604,3.275-4.85,6.837-6.678,10.588c-1.864,3.825-3.311,7.862-4.277,11.998
					c-0.993,4.252-1.509,8.635-1.509,13.027v0.079l0.013,0.079c0.092,6.787,1.012,13.157,2.724,18.934
					c1.537,5.19,3.752,10.011,6.576,14.327c0.849,1.297,1.728,2.509,2.62,3.643c-1.595,1.087-3.167,2.235-4.712,3.443
					c-6.076,4.749-11.75,10.422-16.866,16.864c-5,6.297-9.46,13.318-13.256,20.871c-3.75,7.46-6.844,15.426-9.201,23.681
					c-0.414,1.237-0.85,2.791-1.283,4.538l-2.97,10.49h0.868c-0.698,4.295-1.226,8.826-1.548,13.223l-0.912,12.408h12.468h165.092
					h12.576l-1.027-12.518c-0.087-1.058-1.311-13.802-1.825-16.586l-0.026-0.105l-0.025-0.096v0.002l0.004-0.008
					c-0.302-1.486-1.862-9.099-2.988-13.04c-2.367-8.29-5.494-16.275-9.295-23.737c-3.799-7.453-8.268-14.383-13.287-20.598
					c-5.109-6.328-10.787-11.914-16.874-16.6c-1.608-1.238-3.247-2.415-4.91-3.526c1.996-2.603,3.786-5.394,5.338-8.339
					c2.197-4.168,3.898-8.598,5.051-13.165c1.185-4.697,1.788-9.52,1.788-14.332v-0.035l-0.003-0.034
					c-0.019-3.128-0.281-6.306-0.778-9.443c-0.518-3.269-1.294-6.503-2.305-9.615c-2.242-6.897-5.584-13.097-9.93-18.427
					c-4.947-6.068-11.052-10.818-18.143-14.117C143.599,46.086,134.89,44.28,125.37,44.28L125.37,44.28z"/>
			</g>
		</g>
		<g>
			<g>
				<polygon fill="#DAF3DA" points="160.691,254.097 134.446,181.898 177.656,181.898 183.381,197.65 205.912,135.668 
					249.121,135.668 206.072,254.097 				"/>
				<path fill="#3D6380" d="M240.85,141.462l-38.837,106.842H164.75l-22.033-60.612h30.88l9.784,26.917l26.589-73.146H240.85
					 M257.391,129.875H240.85h-30.88h-8.117l-2.773,7.628l-15.698,43.188l-1.667-4.586h-8.117h-30.88h-16.542l5.651,15.545
					l22.032,60.613l2.773,7.629h8.117h37.264h8.117l2.773-7.629l38.836-106.842L257.391,129.875L257.391,129.875z"/>
			</g>
		</g>
	</g>
	<g id="V3_4_" display="inline">
		<g>
			
				<line fill="none" stroke="#EEF9FE" stroke-width="80" stroke-miterlimit="10" x1="231.328" y1="63.141" x2="142.717" y2="63.141"/>
			<line fill="none" stroke="#EEF9FE" stroke-width="80" stroke-miterlimit="10" x1="231.328" y1="81.34" x2="142.717" y2="81.34"/>
			
				<line fill="none" stroke="#EEF9FE" stroke-width="80" stroke-miterlimit="10" x1="204.062" y1="117.742" x2="115.453" y2="117.742"/>
			
				<line fill="none" stroke="#EEF9FE" stroke-width="80" stroke-miterlimit="10" x1="231.328" y1="99.541" x2="142.717" y2="99.541"/>
		</g>
		<g>
			<g>
				<path fill="#3E6380" d="M39.889,231.699l0.215-2.928c0.937-12.723,4.391-25.633,4.538-26.176l0.009-0.033
					c2.213-7.811,5.129-15.339,8.668-22.377c3.523-7.01,7.654-13.514,12.278-19.334c4.681-5.893,9.857-11.069,15.384-15.387
					c4.341-3.392,8.899-6.252,13.599-8.54c-3.076-2.454-6.554-5.804-9.546-10.377c-2.352-3.595-4.2-7.629-5.492-11.993
					c-1.48-4.998-2.272-10.562-2.354-16.537v-0.037c0-3.715,0.425-7.419,1.265-11.012c0.815-3.492,2.028-6.901,3.602-10.133
					c3.076-6.313,7.59-12,13.054-16.446l0.012-0.009c4.197-3.376,8.883-6.007,13.929-7.819c5.227-1.877,10.718-2.829,16.321-2.829
					c8.219,0,15.671,1.528,22.147,4.542c5.867,2.73,10.918,6.661,15.014,11.683c3.65,4.478,6.469,9.715,8.371,15.566
					c1.7,5.229,2.582,10.89,2.65,16.372v0.016c0,14.668-6.594,28.784-17.465,37.914c4.727,2.28,9.303,5.117,13.656,8.468
					c5.536,4.262,10.713,9.355,15.385,15.143c4.634,5.736,8.768,12.146,12.286,19.051c3.544,6.953,6.461,14.404,8.672,22.146
					c1.058,3.703,2.649,11.487,2.827,12.363l0.008,0.035l0.005,0.025c0.374,2.027,1.54,13.668,1.706,15.689l0.244,2.951H39.889
					L39.889,231.699z"/>
				<path fill="#EEF8FD" d="M125.37,52.459c32.979,0,45.333,25.44,45.451,45.453c0,15.705-7.965,30.366-20.075,38.531
					c24.471,9.869,43.987,34.366,52.719,64.939c1.08,3.782,2.766,12.099,2.781,12.171c0.34,1.846,1.502,13.373,1.67,15.418H42.823
					c0.928-12.611,4.451-25.667,4.451-25.667c8.733-30.819,28.248-55.935,52.717-65.804c-7.366-4.966-19.745-15.05-20.077-39.52
					c0-14.288,6.605-27.087,16.915-35.476C104.634,56.227,114.554,52.459,125.37,52.459 M125.37,47.006
					c-5.918,0-11.719,1.006-17.243,2.99c-5.332,1.915-10.283,4.694-14.716,8.261l-0.011,0.009l-0.012,0.01
					c-2.878,2.342-5.51,5.003-7.82,7.909c-2.326,2.926-4.333,6.108-5.965,9.458c-1.664,3.414-2.956,7.017-3.817,10.707
					c-0.887,3.795-1.348,7.708-1.348,11.632v0.037l0.012,0.037c0.084,6.225,0.92,12.037,2.471,17.275
					c1.368,4.617,3.331,8.894,5.828,12.71c1.969,3.009,4.325,5.808,7.006,8.324c-3.592,1.997-7.086,4.32-10.453,6.951
					c-5.696,4.45-11.025,9.779-15.84,15.839c-4.74,5.966-8.972,12.63-12.58,19.806c-3.616,7.191-6.595,14.883-8.855,22.858
					l-0.009,0.032l-0.009,0.033c-0.149,0.555-3.669,13.707-4.625,26.688l-0.431,5.854h5.869h165.092h5.921l-0.486-5.901
					c-0.142-1.716-1.329-13.726-1.743-15.961l-0.01-0.052l-0.01-0.053l-0.002-0.004c-0.293-1.445-1.814-8.845-2.877-12.568
					c-2.26-7.91-5.242-15.526-8.865-22.636c-3.604-7.074-7.842-13.644-12.594-19.527c-4.807-5.952-10.139-11.197-15.845-15.59
					c-3.405-2.622-6.944-4.94-10.587-6.937c9.691-9.602,15.461-23.205,15.461-37.284v-0.016l-0.002-0.016
					c-0.018-2.82-0.254-5.687-0.703-8.52c-0.468-2.952-1.168-5.872-2.08-8.679c-2.008-6.173-4.984-11.707-8.85-16.447
					c-4.357-5.344-9.732-9.527-15.977-12.432C141.828,48.62,133.989,47.006,125.37,47.006L125.37,47.006z"/>
			</g>
		</g>
		<g>
			<g>
				<polygon fill="#3D6380" points="160.691,250.689 134.446,178.49 177.656,178.49 183.381,194.242 205.912,132.26 249.121,132.26 
					206.072,250.689 				"/>
				<path fill="#DAF3DA" d="M240.85,138.054l-38.837,106.842H164.75l-22.033-60.612h30.88l9.784,26.917l26.589-73.146H240.85
					 M257.391,126.466H240.85h-30.88h-8.117l-2.773,7.629l-15.698,43.188l-1.667-4.587h-8.117h-30.88h-16.542l5.651,15.546
					l22.032,60.612l2.773,7.629h8.117h37.264h8.117l2.773-7.629l38.836-106.841L257.391,126.466L257.391,126.466z"/>
			</g>
		</g>
	</g>
</g>
<g id="GlobalVerify" display="none">
	<circle display="inline" fill="#EEF8FD" cx="139.777" cy="141.269" r="106.557"/>
	<g id="V1_4_" display="inline">
		<g>
			<g>
				<path fill="#EEF8FD" d="M96.862,192.626c-2.548-8.885-4.548-17.883-5.948-26.771c-1.358-8.625-2.188-17.368-2.471-26.029h39.563
					v52.8H96.862z"/>
				<path fill="#3D6380" d="M125.621,142.212v48.029H98.667c-2.29-8.229-4.102-16.541-5.396-24.758
					c-1.215-7.71-2.002-15.517-2.348-23.271H125.621 M130.392,137.441H85.993c0.399,19.191,3.413,38.381,9.079,57.572h35.32V137.441
					L130.392,137.441z"/>
			</g>
			<g>
				<path fill="#EEF8FD" d="M55.027,192.626c-5.089-9.26-8.948-16.607-11.828-24.793c-3.012-8.561-4.66-17.287-5.266-28.007H75.45
					c0.538,17.558,3.184,35.293,7.877,52.8H55.027z"/>
				<path fill="#3D6380" d="M73.148,142.212c0.655,15.98,3.034,32.09,7.09,48.029H56.439c-4.7-8.585-8.297-15.548-10.99-23.199
					c-1.532-4.355-2.688-8.727-3.532-13.364c-0.655-3.597-1.129-7.381-1.436-11.466H73.148 M77.776,137.441H35.429
					c1.041,25.588,7.615,38.381,18.188,57.572h32.841C81.045,175.822,78.159,156.632,77.776,137.441L77.776,137.441z"/>
			</g>
			<g>
				<path fill="#EEF8FD" d="M102.263,64.69c1.626-3.076,3.249-6.981,5.035-11.282c2.79-6.714,5.935-14.286,9.809-20.314
					c2.901-0.543,5.111-0.566,8.061-0.595c0.872-0.009,1.809-0.018,2.838-0.042V64.69H102.263z"/>
				<path fill="#3D6380" d="M125.621,34.879v27.425h-19.539c1.107-2.417,2.228-5.113,3.419-7.981
					c2.615-6.294,5.546-13.351,9.058-19.058c2.216-0.338,4.084-0.356,6.632-0.382C125.333,34.882,125.476,34.881,125.621,34.879
					 M130.392,29.985c-6.396,0.299-9.427-0.176-14.733,0.966c-7.935,11.847-12.751,29.727-17.673,36.124h32.406V29.985
					L130.392,29.985z"/>
			</g>
			<g>
				<path fill="#EEF8FD" d="M37.825,128.659c0.887-17.672,6.428-34.772,15.062-46.404h30.426
					c-4.847,17.502-7.339,29.683-7.863,46.404H37.825z"/>
				<path fill="#3D6380" d="M80.187,84.641c-4.145,15.324-6.396,26.802-7.035,41.632H40.366c0.222-2.924,0.575-5.849,1.056-8.739
					c0.743-4.474,1.791-8.859,3.113-13.035c1.326-4.186,2.926-8.153,4.755-11.791c1.467-2.917,3.082-5.622,4.814-8.067H80.187
					 M86.458,79.87H51.704c-9.931,12.793-15.863,31.984-16.356,51.175h42.429C78.159,111.854,81.045,99.06,86.458,79.87
					L86.458,79.87z"/>
			</g>
			<g>
				<path fill="#EEF8FD" d="M88.444,128.659c0.273-8.092,1.063-15.383,2.458-22.759c1.425-7.538,3.417-14.975,5.955-23.645h31.149
					v46.404H88.444z"/>
				<path fill="#3D6380" d="M125.621,84.641v41.632H90.928c0.134-2.81,0.333-5.501,0.602-8.139
					c0.402-3.957,0.964-7.814,1.716-11.791c1.312-6.945,3.12-13.826,5.401-21.703H125.621 M130.392,79.87h-35.32
					c-5.666,19.19-8.68,31.984-9.079,51.175h44.399V79.87L130.392,79.87z"/>
			</g>
			<g>
				<path fill="#EEF8FD" d="M145.572,64.69V32.24c1.273-0.038,2.991-0.083,4.791-0.083c2.756,0,4.978,0.104,6.624,0.312
					c3.96,6.087,7.412,13.744,10.474,20.535c2.016,4.47,3.846,8.527,5.604,11.686H145.572L145.572,64.69z"/>
				<path fill="#3D6380" d="M150.363,34.543c2.326,0,4.016,0.078,5.232,0.18c3.611,5.777,6.824,12.902,9.691,19.261
					c1.351,2.997,2.62,5.812,3.852,8.32h-21.182V34.567C148.718,34.553,149.533,34.543,150.363,34.543 M150.363,29.771
					c-3.202,0-6.07,0.138-6.922,0.138c-0.166,0-0.255-0.005-0.255-0.018v37.185h34.24c-5.018-6.397-10.891-24.761-19.035-36.808
					C156.206,29.876,153.158,29.771,150.363,29.771L150.363,29.771z"/>
			</g>
			<g>
				<path fill="#EEF8FD" d="M145.572,128.659V82.255h32.982c2.537,8.67,4.529,16.107,5.955,23.645
					c1.394,7.376,2.184,14.667,2.457,22.759H145.572z"/>
				<path fill="#3D6380" d="M176.763,84.641c2.281,7.877,4.088,14.757,5.401,21.703c0.752,3.977,1.313,7.833,1.716,11.791
					c0.269,2.638,0.468,5.33,0.602,8.139h-36.525V84.641H176.763 M180.338,79.87h-37.153v51.175h46.232
					C189.018,111.854,186.003,99.06,180.338,79.87L180.338,79.87z"/>
			</g>
			<g>
				<path fill="#EEF8FD" d="M187.515,64.69c-1.809-3.021-3.939-8-6.182-13.236c-2.125-4.966-4.455-10.406-6.981-15.341
					c2.874,1.152,5.786,2.525,8.706,4.107c4.367,2.367,8.897,5.281,13.467,8.662c6.879,5.091,13.229,10.784,18.512,15.808H187.515z"
					/>
				<path fill="#3D6380" d="M179.347,40.977c0.855,0.428,1.715,0.875,2.574,1.341c4.269,2.313,8.705,5.167,13.185,8.482
					c4.964,3.673,9.657,7.673,13.868,11.504h-20.072c-1.58-2.925-3.436-7.258-5.375-11.789
					C182.211,47.442,180.819,44.189,179.347,40.977 M169.214,31.782c6.921,11.293,12.596,28.897,16.994,35.294h34.729
					C207.883,54.282,189.917,38.005,169.214,31.782L169.214,31.782z"/>
			</g>
			<g>
				<path fill="#EEF8FD" d="M97.753,226.956c-5.74-2.631-11.378-5.923-16.83-9.831c-5.453-3.909-10.651-8.379-15.503-13.329h22.011
					C90.361,213.203,93.828,219.99,97.753,226.956z"/>
				<path fill="#3D6380" d="M85.689,206.181c1.913,5.824,4.032,10.652,6.34,15.189c-3.291-1.84-6.535-3.905-9.716-6.186
					c-3.809-2.73-7.492-5.742-11.017-9.004H85.689 M89.201,201.41h-29.29c11.489,12.794,26.38,24.146,43.37,30.41
					C97.665,222.017,92.969,214.204,89.201,201.41L89.201,201.41z"/>
			</g>
			<g>
				<path fill="#EEF8FD" d="M63.229,64.69c5.897-5.876,11.54-10.836,17.145-15.075c6.687-5.057,13.335-9.063,19.836-11.958
					c-2.324,4.636-4.475,9.681-6.444,14.299c-2.131,4.998-4.158,9.75-5.893,12.734H63.229z"/>
				<path fill="#3D6380" d="M95.126,42.833c-1.245,2.769-2.43,5.546-3.556,8.187c-1.835,4.304-3.591,8.422-5.104,11.285H69.119
					c4.318-4.062,8.518-7.629,12.693-10.786c4.085-3.089,8.18-5.798,12.169-8.05C94.363,43.252,94.744,43.041,95.126,42.833
					 M105.451,33.023c-19.09,6.562-35.657,21.258-47.898,34.052h31.648C93.438,60.679,98.872,43.943,105.451,33.023L105.451,33.023z
					"/>
			</g>
			<g>
				<path fill="#EEF8FD" d="M176.728,228.601c4.045-7.135,8.012-14.879,11.229-24.806h24.867
					c-5.513,5.33-11.177,10.046-16.892,14.062C189.556,222.337,183.12,225.937,176.728,228.601z"/>
				<path fill="#3D6380" d="M206.757,206.181c-4.016,3.589-8.094,6.842-12.196,9.725c-4.079,2.865-8.179,5.361-12.271,7.471
					c2.643-5.098,5.17-10.674,7.389-17.195H206.757 M218.579,201.41h-32.37c-3.937,12.794-8.9,21.519-14.857,31.729
					C189.941,227.105,206.227,214.203,218.579,201.41L218.579,201.41z"/>
			</g>
			<g>
				<path fill="#EEF8FD" d="M199.958,128.659c-0.522-16.721-3.015-28.901-7.862-46.404h33.507
					c8.634,11.632,14.175,28.732,15.062,46.404H199.958z"/>
				<path fill="#3D6380" d="M224.386,84.641c1.732,2.446,3.348,5.15,4.814,8.067c1.829,3.638,3.429,7.605,4.755,11.791
					c1.323,4.176,2.37,8.561,3.114,13.035c0.48,2.891,0.832,5.815,1.055,8.74h-35.867c-0.639-14.831-2.89-26.309-7.034-41.632
					H224.386 M226.787,79.87h-37.834c5.412,19.19,8.298,31.984,8.682,51.175h45.509C242.65,111.854,236.718,92.663,226.787,79.87
					L226.787,79.87z"/>
			</g>
			<g>
				<path fill="#EEF8FD" d="M145.572,192.626v-52.8h41.396c-0.282,8.661-1.112,17.404-2.472,26.029
					c-1.399,8.888-3.398,17.886-5.947,26.771H145.572z"/>
				<path fill="#3D6380" d="M184.488,142.212c-0.347,7.755-1.133,15.562-2.348,23.271c-1.295,8.217-3.107,16.528-5.396,24.758
					h-28.787v-48.029H184.488 M189.417,137.441h-46.232v57.572h37.153C186.003,175.822,189.018,156.632,189.417,137.441
					L189.417,137.441z"/>
			</g>
			<g>
				<path fill="#EEF8FD" d="M192.083,192.626c4.694-17.507,7.34-35.242,7.877-52.8h40.598c-0.605,10.72-2.253,19.446-5.266,28.007
					c-2.88,8.186-6.739,15.533-11.828,24.793H192.083z"/>
				<path fill="#3D6380" d="M238.009,142.212c-0.307,4.085-0.781,7.869-1.437,11.466c-0.845,4.638-1.999,9.009-3.532,13.364
					c-2.692,7.651-6.289,14.614-10.989,23.199h-26.88c4.057-15.939,6.436-32.049,7.09-48.029H238.009 M243.061,137.441h-45.427
					c-0.384,19.191-3.27,38.381-8.682,57.572h35.921C235.447,175.822,242.02,163.029,243.061,137.441L243.061,137.441z"/>
			</g>
			<g>
				<path fill="#EEF8FD" d="M145.572,203.795h28.439c-4.135,10.996-8.822,20.396-14.936,29.985
					c-3.979,0.675-9.98,1.079-13.326,1.305c-0.061,0.004-0.119,0.008-0.178,0.012V203.795L145.572,203.795z"/>
				<path fill="#3D6380" d="M170.53,206.181c-3.637,9.139-7.747,17.229-12.892,25.411c-2.941,0.431-6.721,0.738-9.682,0.95v-26.361
					H170.53 M177.425,201.41h-34.24v36.285c0-0.15,11.496-0.582,17.34-1.756C167.679,224.859,172.861,214.203,177.425,201.41
					L177.425,201.41z"/>
			</g>
			<g>
				<path fill="#EEF8FD" d="M128.006,235.059c-4.521-0.341-8.345-0.942-13.075-2.036c-5.861-9.342-9.59-18.059-13.577-29.228h26.652
					L128.006,235.059L128.006,235.059z"/>
				<path fill="#3D6380" d="M125.621,206.181v26.271c-3.056-0.32-5.885-0.797-9.189-1.534c-2.725-4.425-5.063-8.876-7.287-13.861
					c-1.447-3.243-2.835-6.679-4.386-10.876H125.621 M130.392,201.41H97.985c4.452,12.793,8.536,22.878,15.451,33.713
					c6.004,1.434,10.558,2.14,16.955,2.479V201.41L130.392,201.41z"/>
			</g>
		</g>
		<g>
			<g>
				<polygon fill="#DAF3DA" points="166.454,256.544 138.002,178.272 184.304,178.272 191.011,196.72 216.205,127.411 
					262.507,127.411 215.568,256.544 				"/>
				<path fill="#3D6380" d="M254.237,133.205L211.509,250.75h-40.997l-24.239-66.684h33.973l10.766,29.613l29.252-80.474H254.237
					 M270.778,121.618h-16.541h-33.974h-8.117l-2.773,7.629l-18.361,50.515l-2.648-7.283h-8.117h-33.973h-16.542l5.651,15.547
					l24.24,66.684l2.772,7.629h8.117h40.997h8.117l2.772-7.629l42.728-117.545L270.778,121.618L270.778,121.618z"/>
			</g>
		</g>
	</g>
	<g display="inline">
		<line fill="none" stroke="#64D600" stroke-width="80" stroke-miterlimit="10" x1="19.496" y1="84.663" x2="276.416" y2="84.663"/>
		
			<line fill="none" stroke="#64D600" stroke-width="80" stroke-miterlimit="10" x1="17.587" y1="195.433" x2="274.507" y2="195.433"/>
		
			<line fill="none" stroke="#64D600" stroke-width="80" stroke-miterlimit="10" x1="17.587" y1="247.854" x2="274.507" y2="247.854"/>
		<line fill="none" stroke="#64D600" stroke-width="80" stroke-miterlimit="10" x1="17.587" y1="34.697" x2="274.507" y2="34.697"/>
		<line fill="none" stroke="#64D600" stroke-width="80" stroke-miterlimit="10" x1="139.81" y1="6.68" x2="139.81" y2="263.6"/>
		
			<line fill="none" stroke="#64D600" stroke-width="80" stroke-miterlimit="10" x1="17.587" y1="141.241" x2="274.507" y2="141.241"/>
		<g>
			<path fill="none" stroke="#64D600" stroke-width="80" stroke-miterlimit="10" d="M153.171,18.569
				c0,0,42.535,55.22,42.535,125.807"/>
			<path fill="none" stroke="#64D600" stroke-width="80" stroke-miterlimit="10" d="M153.171,267.077
				c0,0,42.535-55.22,42.535-125.808"/>
		</g>
		<g>
			<path fill="none" stroke="#64D600" stroke-width="80" stroke-miterlimit="10" d="M124.131,18.569
				c0,0-42.535,55.22-42.535,125.807"/>
			<path fill="none" stroke="#64D600" stroke-width="80" stroke-miterlimit="10" d="M124.131,267.077
				c0,0-42.535-55.22-42.535-125.808"/>
		</g>
	</g>
	<g id="V3_3_" display="inline">
		<path fill="#EEF8FD" d="M242.892,143.968c0-0.008,0-0.016,0-0.023c0.006-0.217,0.011-0.433,0.015-0.65c0-0.003,0-0.006,0-0.009
			c0.005-0.221,0.008-0.441,0.011-0.663c0-0.054,0.001-0.109,0.002-0.163c0.002-0.17,0.003-0.34,0.004-0.51
			c0.002-0.227,0.002-0.454,0.002-0.681c0-0.618-0.006-1.234-0.016-1.85c-0.002-0.072-0.002-0.144-0.004-0.215
			c-0.002-0.11-0.012-0.221-0.014-0.331c-0.002-0.119-0.014-0.238-0.014-0.357c0-0.001,0-0.001,0-0.002h0.006
			c-0.473-18.623-5.721-36.058-14.568-51.125h0.002c-0.001-0.001,0-0.002-0.001-0.003c-0.544-0.925-1.1-1.841-1.669-2.748
			c-0.002-0.002-0.004-0.004-0.005-0.007c-0.569-0.907-1.153-1.804-1.749-2.691c-0.001-0.001-0.002-0.003-0.003-0.004l0,0
			c-13.829-20.592-34.653-36.093-59.069-43.101l0,0c-0.002,0-0.002,0-0.002-0.001c-1.457-0.418-2.928-0.806-4.409-1.163
			c-0.008-0.002-0.017-0.004-0.024-0.006c-0.883-0.212-1.771-0.414-2.662-0.604c-0.008-0.001-0.016-0.003-0.023-0.005
			c-0.588-0.125-1.177-0.246-1.768-0.361c-0.021-0.004-0.043-0.008-0.064-0.013c-0.592-0.115-1.184-0.226-1.779-0.331
			c-0.004,0-0.01-0.001-0.015-0.002c-0.283-0.05-0.567-0.099-0.851-0.147c-0.029-0.005-0.059-0.01-0.089-0.015
			c-0.581-0.098-1.165-0.19-1.749-0.279c-0.037-0.005-0.074-0.011-0.111-0.017c-0.27-0.04-0.539-0.08-0.809-0.118
			c-0.023-0.003-0.046-0.006-0.068-0.01c-0.297-0.042-0.594-0.083-0.891-0.122c-0.016-0.002-0.031-0.004-0.047-0.006
			c-0.27-0.036-0.539-0.07-0.81-0.104c-0.05-0.006-0.101-0.013-0.151-0.019c-0.574-0.071-1.15-0.137-1.729-0.198
			c-0.053-0.005-0.105-0.011-0.158-0.017c-0.244-0.025-0.488-0.05-0.732-0.074c-0.053-0.005-0.104-0.01-0.155-0.015
			c-0.288-0.028-0.577-0.055-0.866-0.08c-0.024-0.002-0.049-0.004-0.072-0.006c-0.26-0.023-0.52-0.044-0.779-0.065
			c-0.068-0.005-0.137-0.011-0.205-0.016c-0.254-0.02-0.508-0.039-0.762-0.057c-0.032-0.002-0.064-0.004-0.096-0.007
			c-0.285-0.02-0.57-0.039-0.855-0.057c-0.065-0.004-0.13-0.007-0.195-0.012c-0.228-0.014-0.456-0.027-0.684-0.039
			c-0.071-0.004-0.142-0.008-0.213-0.011c-0.284-0.015-0.568-0.029-0.853-0.042c-0.023-0.001-0.046-0.002-0.07-0.003
			c-0.26-0.011-0.521-0.021-0.781-0.031c-0.08-0.003-0.16-0.006-0.239-0.008c-0.23-0.008-0.46-0.015-0.691-0.021
			c-0.059-0.001-0.117-0.003-0.176-0.005c-0.282-0.007-0.563-0.014-0.845-0.019c-0.069-0.001-0.137-0.002-0.206-0.003
			c-0.223-0.003-0.445-0.006-0.668-0.009c-0.082-0.001-0.164-0.009-0.245-0.01c-0.282-0.002-0.564-0.011-0.847-0.011
			c-0.002,0-0.004,0-0.007,0c-0.007,0-0.014,0.008-0.021,0.008c-0.237,0-0.474,0.005-0.711,0.006c-0.083,0-0.166,0.003-0.248,0.004
			c-0.162,0.001-0.323,0.004-0.485,0.006c-0.097,0.001-0.193,0.004-0.29,0.005c-0.148,0.002-0.296,0.005-0.444,0.008
			c-0.101,0.002-0.202,0.005-0.303,0.007c-0.144,0.003-0.288,0.007-0.432,0.011c-0.102,0.003-0.204,0.006-0.306,0.009
			c-0.144,0.004-0.289,0.009-0.433,0.014c-0.1,0.003-0.199,0.007-0.299,0.01c-0.149,0.005-0.298,0.011-0.446,0.018
			c-0.094,0.003-0.188,0.007-0.282,0.012c-0.163,0.007-0.325,0.015-0.488,0.022c-0.08,0.003-0.159,0.007-0.238,0.011
			c-0.218,0.011-0.436,0.022-0.653,0.035c-0.024,0.001-0.048,0.002-0.072,0.004c-0.244,0.014-0.488,0.029-0.732,0.044
			c-0.058,0.003-0.116,0.008-0.174,0.011c-0.184,0.012-0.367,0.024-0.551,0.038c-0.081,0.005-0.162,0.012-0.244,0.018
			c-0.161,0.012-0.321,0.023-0.481,0.036c-0.088,0.007-0.176,0.014-0.264,0.021c-0.154,0.013-0.309,0.025-0.463,0.038
			c-0.089,0.007-0.178,0.015-0.268,0.023c-0.155,0.013-0.309,0.027-0.464,0.041c-0.086,0.008-0.173,0.016-0.26,0.024
			c-0.16,0.015-0.32,0.03-0.48,0.046c-0.08,0.008-0.16,0.015-0.24,0.023c-0.176,0.018-0.351,0.036-0.527,0.054
			c-0.063,0.007-0.126,0.013-0.189,0.02c-0.228,0.024-0.456,0.049-0.684,0.076c-0.01,0.001-0.021,0.002-0.031,0.003
			c-0.249,0.028-0.497,0.058-0.745,0.088c-0.006,0-0.012,0.001-0.018,0.002c-0.232,0.028-0.464,0.057-0.696,0.087
			c-0.055,0.007-0.109,0.014-0.163,0.021c-0.185,0.023-0.369,0.048-0.553,0.073c-0.068,0.009-0.136,0.019-0.204,0.028
			c-0.171,0.023-0.343,0.047-0.514,0.071c-0.072,0.01-0.144,0.021-0.215,0.031c-0.169,0.024-0.338,0.049-0.508,0.074
			c-0.07,0.011-0.141,0.021-0.211,0.032c-0.173,0.026-0.347,0.053-0.521,0.08c-0.063,0.01-0.127,0.02-0.191,0.029
			c-0.189,0.03-0.377,0.061-0.566,0.091c-0.047,0.007-0.094,0.015-0.141,0.023c-0.723,0.119-1.442,0.245-2.16,0.378
			c-0.026,0.005-0.053,0.01-0.079,0.015c-0.208,0.039-0.416,0.078-0.624,0.118c-0.05,0.01-0.101,0.02-0.15,0.029
			c-0.185,0.036-0.37,0.072-0.554,0.109c-0.059,0.012-0.117,0.023-0.176,0.035c-0.178,0.036-0.355,0.072-0.533,0.109
			c-0.06,0.012-0.119,0.025-0.178,0.037c-0.18,0.038-0.36,0.076-0.54,0.114c-0.054,0.012-0.108,0.023-0.163,0.035
			c-0.192,0.042-0.384,0.083-0.576,0.126c-0.041,0.009-0.081,0.018-0.122,0.027c-0.229,0.051-0.457,0.102-0.684,0.155
			c-0.002,0-0.005,0.001-0.007,0.001l0,0c-0.25,0.057-0.499,0.116-0.748,0.175l0,0c-0.002,0-0.003,0.001-0.005,0.001
			c-0.281,0.067-0.562,0.135-0.842,0.204c-0.061,0.015-0.121,0.03-0.181,0.045c-0.573,0.143-1.144,0.289-1.713,0.44
			c-0.047,0.013-0.095,0.026-0.143,0.039c-0.583,0.156-1.164,0.317-1.743,0.482c-0.028,0.008-0.056,0.016-0.083,0.024
			c-0.597,0.171-1.191,0.347-1.783,0.528c-0.008,0.002-0.015,0.005-0.023,0.007c-0.3,0.092-0.6,0.185-0.899,0.28c0,0,0,0-0.001,0
			l0,0c-23.25,7.35-43.053,22.458-56.37,42.287l0,0c0,0.001-0.001,0.002-0.001,0.003c-0.597,0.889-1.181,1.787-1.751,2.694
			c0,0.001-0.001,0.002-0.002,0.004c-0.571,0.908-1.128,1.825-1.672,2.751c0,0,0,0.001-0.001,0.001l0,0
			c-8.848,15.067-14.093,32.502-14.566,51.125h0.005c0,0,0,0.001,0,0.002c0,0.165-0.013,0.33-0.016,0.495
			c-0.001,0.064-0.005,0.127-0.007,0.191c-0.003,0.166-0.007,0.333-0.009,0.499c0,0.063-0.003,0.126-0.003,0.189
			c-0.001,0.131-0.003,0.262-0.004,0.394c-0.001,0.099-0.002,0.197-0.003,0.296c0,0.018,0,0.035,0,0.052
			c-0.001,0.212-0.002,0.424-0.002,0.637c0,0.227,0,0.454,0.002,0.681c0.001,0.184,0.003,0.368,0.005,0.551
			c0,0.041,0,0.081,0.001,0.122c0.005,0.441,0.014,0.882,0.025,1.322c0,0.008,0,0.016,0,0.023l0,0
			c0.439,17.646,5.167,34.227,13.182,48.738l0,0c0.001,0.003,0.003,0.006,0.004,0.008c0.118,0.213,0.237,0.427,0.356,0.639
			c0.022,0.039,0.044,0.078,0.066,0.117c0.102,0.182,0.205,0.363,0.308,0.543c0.024,0.044,0.049,0.088,0.074,0.131
			c0.11,0.193,0.221,0.385,0.333,0.577c0.014,0.024,0.027,0.048,0.042,0.071c0.129,0.223,0.259,0.443,0.39,0.665
			c0.003,0.005,0.007,0.011,0.01,0.017c0.12,0.203,0.24,0.404,0.362,0.606c0.036,0.06,0.071,0.118,0.107,0.177
			c0.09,0.15,0.182,0.301,0.272,0.45c0.042,0.069,0.085,0.14,0.128,0.208c0.089,0.146,0.179,0.292,0.27,0.438
			c0.04,0.064,0.079,0.129,0.119,0.192c0.126,0.202,0.253,0.405,0.381,0.606c0.002,0.004,0.003,0.006,0.005,0.009l0,0
			c12.93,20.438,32.622,36.175,55.931,44.063l0,0l0,0.001c0.273,0.093,0.546,0.183,0.82,0.273c0.065,0.021,0.13,0.042,0.195,0.063
			c0.262,0.086,0.523,0.171,0.786,0.254c0.012,0.004,0.023,0.008,0.035,0.012c0.282,0.09,0.563,0.178,0.846,0.266
			c0.051,0.016,0.102,0.031,0.153,0.047c0.275,0.084,0.55,0.168,0.826,0.25c0.005,0.002,0.011,0.003,0.017,0.005
			c0.295,0.088,0.591,0.175,0.887,0.261c0.03,0.008,0.06,0.017,0.09,0.025c0.598,0.172,1.197,0.339,1.799,0.5
			c0.011,0.004,0.022,0.006,0.033,0.01c0.305,0.082,0.61,0.162,0.916,0.241c0,0,0,0,0.001,0l0,0
			c0.943,0.245,1.893,0.476,2.846,0.695l0,0c0.001,0,0.003,0.001,0.005,0.001c0.229,0.053,0.46,0.104,0.69,0.156
			c0.026,0.006,0.053,0.012,0.08,0.018c0.208,0.046,0.415,0.092,0.623,0.136c0.036,0.008,0.072,0.016,0.107,0.023
			c0.202,0.043,0.403,0.085,0.605,0.128c0.037,0.008,0.074,0.016,0.112,0.023c0.205,0.042,0.411,0.084,0.616,0.125
			c0.031,0.006,0.062,0.013,0.093,0.019c0.225,0.045,0.449,0.089,0.674,0.133c0.011,0.002,0.021,0,0.031,0.002
			c0.728,0.141,1.458,0.259,2.191,0.396h0c0.235,0.068,0.47,0.083,0.705,0.121c0.036,0.006,0.071,0.014,0.107,0.02
			c0.201,0.033,0.401,0.066,0.602,0.098c0.05,0.008,0.101,0.017,0.151,0.024c0.188,0.029,0.376,0.058,0.564,0.087
			c0.056,0.008,0.111,0.017,0.167,0.025c0.186,0.027,0.373,0.055,0.559,0.081c0.054,0.008,0.109,0.016,0.164,0.023
			c0.193,0.027,0.386,0.054,0.579,0.081c0.047,0.006,0.093,0.012,0.14,0.019c0.217,0.029,0.435,0.058,0.652,0.086
			c0.021,0.003,0.043,0.005,0.065,0.009c0.491,0.062,0.983,0.122,1.477,0.178c0.014,0.002,0.028,0.004,0.042,0.005
			c0.224,0.025,0.447,0.05,0.671,0.073c0.057,0.007,0.114,0.013,0.171,0.019c0.181,0.019,0.363,0.038,0.544,0.056
			c0.073,0.008,0.146,0.016,0.22,0.021c0.167,0.018,0.333,0.033,0.5,0.049c0.08,0.008,0.159,0.015,0.239,0.021
			c0.162,0.016,0.324,0.029,0.486,0.043c0.082,0.008,0.164,0.015,0.246,0.021c0.162,0.014,0.325,0.027,0.487,0.04
			c0.081,0.007,0.161,0.013,0.241,0.019c0.171,0.014,0.342,0.026,0.514,0.039c0.07,0.004,0.141,0.01,0.211,0.016
			c0.204,0.014,0.408,0.027,0.611,0.041c0.038,0.002,0.076,0.004,0.113,0.007c0.246,0.016,0.491,0.03,0.737,0.044
			c0.033,0.002,0.066,0.004,0.1,0.006c0.208,0.012,0.416,0.023,0.624,0.033c0.079,0.004,0.158,0.008,0.236,0.012
			c0.163,0.008,0.326,0.016,0.488,0.021c0.093,0.005,0.186,0.008,0.278,0.012c0.149,0.007,0.299,0.013,0.449,0.018
			c0.099,0.004,0.197,0.008,0.295,0.011c0.145,0.005,0.29,0.009,0.435,0.014c0.101,0.003,0.202,0.006,0.303,0.009
			c0.144,0.004,0.288,0.008,0.433,0.011c0.101,0.003,0.201,0.005,0.301,0.007c0.148,0.003,0.297,0.006,0.446,0.008
			c0.095,0.002,0.191,0.003,0.287,0.004c0.162,0.003,0.324,0.004,0.486,0.006c0.083,0,0.165,0.002,0.247,0.002
			c0.236,0.002,0.473,0.003,0.709,0.003c0.007,0,0.015,0,0.022,0s0.015,0,0.022,0c0.237,0,0.473-0.001,0.709-0.003
			c0.082,0,0.165-0.002,0.247-0.002c0.162-0.002,0.324-0.003,0.486-0.006c0.096-0.001,0.191-0.002,0.287-0.004
			c0.148-0.002,0.297-0.005,0.445-0.008c0.101-0.002,0.201-0.004,0.302-0.007c0.144-0.003,0.289-0.007,0.433-0.011
			c0.101-0.003,0.202-0.006,0.303-0.009c0.145-0.004,0.29-0.009,0.435-0.014c0.099-0.003,0.197-0.007,0.296-0.011
			c0.15-0.005,0.299-0.011,0.449-0.018c0.093-0.004,0.186-0.007,0.278-0.011c0.163-0.007,0.326-0.015,0.488-0.022
			c0.079-0.004,0.158-0.008,0.237-0.012c0.208-0.01,0.415-0.021,0.623-0.033c0.034-0.002,0.067-0.003,0.101-0.005
			c0.246-0.015,0.492-0.028,0.737-0.044c0.038-0.003,0.076-0.006,0.114-0.008c0.204-0.014,0.408-0.027,0.612-0.041
			c0.07-0.006,0.141-0.011,0.211-0.016c0.172-0.013,0.342-0.025,0.514-0.039c0.08-0.006,0.16-0.012,0.24-0.019
			c0.162-0.013,0.324-0.026,0.486-0.04c0.082-0.007,0.164-0.014,0.247-0.021c0.161-0.014,0.323-0.027,0.485-0.043
			c0.08-0.007,0.16-0.014,0.24-0.021c0.166-0.016,0.332-0.031,0.5-0.048c0.072-0.007,0.146-0.015,0.22-0.022
			c0.181-0.018,0.362-0.036,0.544-0.055c0.057-0.007,0.114-0.013,0.172-0.019c0.223-0.024,0.446-0.049,0.67-0.074
			c0.014-0.001,0.029-0.003,0.043-0.005c0.493-0.056,0.985-0.115,1.477-0.178c0.021-0.004,0.044-0.006,0.066-0.009
			c0.217-0.028,0.434-0.057,0.65-0.086c0.047-0.007,0.094-0.013,0.141-0.019c0.192-0.027,0.385-0.054,0.578-0.08
			c0.055-0.008,0.109-0.016,0.164-0.024c0.187-0.026,0.373-0.054,0.559-0.081c0.056-0.009,0.111-0.017,0.168-0.025
			c0.188-0.028,0.375-0.057,0.562-0.086c0.051-0.008,0.102-0.016,0.152-0.023c0.201-0.032,0.401-0.064,0.602-0.098
			c0.036-0.006,0.072-0.011,0.107-0.018c0.235-0.038,0.47-0.077,0.703-0.117c0.002,0,0.002,0,0.003,0
			c0.732-0.126,1.463-0.259,2.19-0.398c0.012-0.003,0.021-0.005,0.033-0.007c0.225-0.044,0.448-0.088,0.672-0.132
			c0.031-0.007,0.062-0.014,0.094-0.02c0.205-0.041,0.41-0.083,0.615-0.125c0.038-0.008,0.076-0.016,0.113-0.023
			c0.201-0.043,0.402-0.085,0.604-0.128c0.036-0.008,0.072-0.016,0.109-0.023c0.207-0.044,0.414-0.09,0.621-0.136
			c0.027-0.006,0.055-0.012,0.082-0.018c0.229-0.051,0.459-0.104,0.688-0.156c0.001,0,0.003,0,0.005-0.001l0,0
			c0.081-0.019,0.161-0.037,0.241-0.056l0,0c0.002,0,0.004,0,0.006-0.001c0.288-0.067,0.577-0.136,0.864-0.205
			c0.03-0.007,0.061-0.015,0.09-0.021c0.59-0.143,1.176-0.29,1.762-0.442c0.024-0.006,0.049-0.012,0.073-0.019
			c0.594-0.155,1.185-0.314,1.774-0.479c0.009-0.002,0.018-0.004,0.025-0.007c0.902-0.253,1.799-0.517,2.691-0.792h0.002l0,0
			c24.496-7.561,45.222-23.715,58.652-44.944l0,0c0.003-0.005,0.006-0.011,0.01-0.017c0.125-0.199,0.25-0.398,0.375-0.598
			c0.041-0.064,0.081-0.131,0.121-0.195c0.09-0.145,0.179-0.289,0.268-0.434c0.043-0.07,0.086-0.141,0.129-0.211
			c0.092-0.148,0.182-0.298,0.271-0.447c0.036-0.06,0.072-0.119,0.108-0.18c0.12-0.199,0.239-0.398,0.358-0.6
			c0.004-0.008,0.009-0.016,0.014-0.023c0.131-0.221,0.26-0.441,0.389-0.663c0.014-0.024,0.028-0.049,0.043-0.073
			c0.111-0.191,0.222-0.383,0.332-0.575c0.024-0.044,0.05-0.088,0.074-0.132c0.104-0.18,0.205-0.36,0.307-0.541
			c0.023-0.04,0.045-0.08,0.067-0.119c0.118-0.211,0.237-0.423,0.354-0.635c0.002-0.004,0.005-0.008,0.007-0.011l0,0
			C237.725,178.195,242.454,161.614,242.892,143.968L242.892,143.968z M229.529,101.917c2.58,6.099,4.562,12.481,5.89,18.971
			c1.181,5.77,1.856,11.687,2.017,17.627h-42.508c-0.475-14.509-2.701-29.355-6.639-44.27c-0.604-2.284-1.247-4.569-1.93-6.855
			h35.574C224.855,92.02,227.405,96.893,229.529,101.917z M133.675,143.968v48.738H88.238c-4.061-14.62-7.021-31.157-7.301-48.738
			H133.675z M81.015,138.515c0.635-18.65,4.223-36.046,8.837-51.125h43.822v51.125H81.015z M156.75,42.22
			c1.81,0.371,3.611,0.793,5.401,1.265c2.077,3.83,4.246,8.071,6.411,12.678c3.409,7.254,7.05,15.954,10.327,25.774h-39.762V40.203
			C145.067,40.363,150.982,41.04,156.75,42.22z M180.635,87.39c4.615,15.082,8.201,32.474,8.836,51.125h-50.343V87.39H180.635z
			 M139.128,143.968h50.421c-0.28,17.581-3.24,34.118-7.302,48.738h-43.12V143.968z M175.721,48.108
			c5.989,2.534,11.767,5.669,17.172,9.321c5.354,3.618,10.39,7.772,14.967,12.349c3.768,3.767,7.248,7.846,10.38,12.158h-33.584
			c-3.072-9.427-6.807-18.834-11.157-28.093c-1.342-2.855-2.683-5.568-3.998-8.123C171.601,46.449,173.677,47.244,175.721,48.108z
			 M115.987,42.22c5.789-1.185,11.727-1.861,17.688-2.018v41.734H91.597c3.259-9.765,6.876-18.419,10.263-25.638
			c2.06-4.39,4.119-8.437,6.079-12.079C110.594,43.442,113.281,42.773,115.987,42.22z M64.878,69.778
			c4.576-4.577,9.612-8.731,14.967-12.349c5.404-3.651,11.182-6.787,17.171-9.321c1.143-0.483,2.296-0.946,3.458-1.387
			c-1.15,2.26-2.318,4.636-3.486,7.122c-4.351,9.258-8.085,18.666-11.158,28.093H54.498C57.629,77.625,61.11,73.545,64.878,69.778z
			 M37.319,120.888c1.328-6.489,3.309-12.872,5.889-18.971c2.125-5.024,4.675-9.897,7.596-14.527h33.323
			c-0.683,2.286-1.327,4.571-1.929,6.855c-3.938,14.915-6.165,29.761-6.639,44.27H35.303
			C35.462,132.574,36.139,126.657,37.319,120.888z M43.208,180.622c-2.58-6.099-4.561-12.481-5.889-18.971
			c-1.185-5.788-1.861-11.724-2.018-17.683h40.162c0,0.136-0.002,0.272-0.002,0.408h0.028c0.271,15.375,2.524,31.16,6.708,47.012
			c0.116,0.439,0.234,0.879,0.353,1.318H49.31C47.007,188.816,44.962,184.769,43.208,180.622z M97.016,234.429
			c-5.989-2.533-11.767-5.669-17.171-9.32c-5.355-3.617-10.391-7.771-14.967-12.349c-4.472-4.472-8.54-9.382-12.098-14.6h31.323
			c3.362,11.28,7.683,22.571,12.885,33.642c0.521,1.108,1.042,2.194,1.561,3.259C98.036,234.854,97.525,234.645,97.016,234.429z
			 M101.86,229.333c-4.014-8.554-8.35-19.125-12.031-31.174h43.846v44.178c-5.961-0.157-11.898-0.834-17.688-2.019
			c-3.368-0.689-6.706-1.556-9.991-2.589C104.638,235.099,103.249,232.294,101.86,229.333z M156.75,240.319
			c-5.769,1.181-11.684,1.856-17.623,2.017V198.16h41.53c-3.681,12.049-8.018,22.62-12.031,31.174
			c-1.53,3.262-3.061,6.336-4.55,9.195C161.656,239.217,159.21,239.815,156.75,240.319z M207.86,212.76
			c-4.577,4.577-9.612,8.731-14.967,12.349c-5.405,3.651-11.183,6.787-17.172,9.32c-1.423,0.603-2.862,1.17-4.313,1.707
			c0.694-1.407,1.393-2.854,2.091-4.34c5.202-11.07,9.522-22.357,12.886-33.637h33.573
			C216.399,203.378,212.332,208.289,207.86,212.76z M235.418,161.651c-1.328,6.489-3.31,12.872-5.89,18.971
			c-1.754,4.147-3.798,8.194-6.102,12.085h-35.492c0.119-0.439,0.237-0.879,0.354-1.318c4.185-15.852,6.438-31.637,6.708-47.012
			h0.028c0-0.136-0.002-0.272-0.002-0.408h42.414C237.279,149.927,236.603,155.863,235.418,161.651z"/>
		<g>
			<polygon fill="#3D6380" stroke="#DAF3DA" stroke-width="169.987" stroke-miterlimit="10" points="227.08,133.205 
				197.828,213.679 187.062,184.066 153.089,184.066 177.33,250.75 218.326,250.75 261.053,133.205 			"/>
		</g>
	</g>
</g>
<g id="SmartMover" display="none">
	<g id="V1_3_" display="inline">
		<g>
			<polygon fill="#EEF8FD" stroke="#3D6380" stroke-width="69.9947" stroke-miterlimit="10" points="118.445,150.462 
				118.445,121.674 118.445,109.566 61.644,109.566 61.644,91.689 42.063,115.089 21.976,138.491 41.81,161.89 61.644,185.292 
				61.644,170.912 118.445,170.912 			"/>
			<path fill="#EEF8FD" stroke="#3D6380" stroke-width="69.9947" stroke-miterlimit="10" d="M170.703,184.544h-53.092
				c-0.056,0-1.438,0.673-1.438,0.673v40.224H98.835l23.402,18.578l23.403,19.619l23.399-19.076l23.399-19.121h-21.736V184.544z"/>
			<polygon fill="#EEF8FD" stroke="#3D6380" stroke-width="69.9947" stroke-miterlimit="10" points="246.892,115.089 
				225.232,91.689 225.232,109.566 170.703,109.566 170.703,61.853 192.439,61.853 169.04,41.543 145.64,21.087 122.237,41.469 
				98.835,61.853 116.173,61.853 116.173,99.815 161.849,170.912 225.232,170.912 225.232,185.292 246.849,161.89 267.583,138.491 
							"/>
		</g>
		<g>
			<path fill="#DAF3DA" d="M116.173,190.337c-3.2,0-5.794-2.594-5.794-5.793v-35.104h-11.21c-2.304,0-4.39-1.365-5.311-3.479
				c-0.921-2.111-0.503-4.569,1.065-6.258l15.456-16.646V102.75c0-3.2,2.594-5.793,5.794-5.793h6.816c3.2,0,5.794,2.594,5.794,5.793
				v3.609l10.738-9.344c1.089-0.948,2.446-1.423,3.803-1.423c1.339,0,2.679,0.462,3.764,1.389l49.449,42.261
				c1.845,1.576,2.511,4.134,1.671,6.41c-0.84,2.276-3.01,3.788-5.436,3.788h-16.277v35.104c0,3.199-2.594,5.793-5.793,5.793
				H116.173z"/>
			<g>
				<path fill="#3D6380" d="M143.324,101.386l49.449,42.261h-22.07v22.892v18.006h-54.529v-18.006v-22.892H99.169l17.004-18.314
					v-14.849v-7.734h6.816v16.331L143.324,101.386 M143.324,89.798c-0.018,0-0.035,0-0.052,0c-2.778,0.013-5.459,1.022-7.555,2.846
					l-3.524,3.066c-0.31-0.405-0.647-0.791-1.011-1.154c-2.173-2.173-5.12-3.394-8.193-3.394h-6.816
					c-3.073,0-6.021,1.221-8.194,3.394c-2.173,2.173-3.394,5.12-3.394,8.193v7.734v10.299l-13.908,14.979
					c-3.136,3.377-3.972,8.292-2.129,12.516c1.842,4.225,6.013,6.955,10.621,6.955h5.416v11.305v18.005
					c0,3.073,1.221,6.021,3.394,8.194c2.173,2.172,5.121,3.394,8.194,3.394h54.529c3.072,0,6.02-1.222,8.193-3.394
					c2.173-2.174,3.394-5.121,3.394-8.194v-18.005v-11.305h10.483c4.853,0,9.191-3.023,10.871-7.574
					c1.68-4.552,0.346-9.669-3.342-12.822l-49.45-42.261C148.753,90.784,146.083,89.798,143.324,89.798L143.324,89.798z"/>
			</g>
		</g>
	</g>
	<g id="V3_2_" display="inline">
		<g>
			<polygon fill="none" stroke="#EEF8FD" stroke-width="69.9947" stroke-miterlimit="10" points="118.445,150.462 118.445,121.674 
				118.445,109.566 61.644,109.566 61.644,91.689 42.063,115.089 21.976,138.491 41.81,161.89 61.644,185.292 61.644,170.912 
				118.445,170.912 			"/>
			<path fill="none" stroke="#EEF8FD" stroke-width="69.9947" stroke-miterlimit="10" d="M170.703,184.544h-53.092
				c-0.056,0-1.438,0.673-1.438,0.673v40.224H98.835l23.402,18.578l23.403,19.619l23.399-19.076l23.399-19.121h-21.736V184.544z"/>
			<polygon fill="none" stroke="#EEF8FD" stroke-width="69.9947" stroke-miterlimit="10" points="246.892,115.089 225.232,91.689 
				225.232,109.566 170.703,109.566 170.703,61.853 192.439,61.853 169.04,41.543 145.64,21.087 122.237,41.469 98.835,61.853 
				116.173,61.853 116.173,99.815 161.849,170.912 225.232,170.912 225.232,185.292 246.849,161.89 267.583,138.491 			"/>
		</g>
		<g>
			<path fill="#3D6380" d="M116.173,190.337c-3.2,0-5.794-2.594-5.794-5.793v-35.104h-11.21c-2.304,0-4.39-1.365-5.311-3.479
				c-0.921-2.111-0.503-4.569,1.065-6.258l15.456-16.646V102.75c0-3.2,2.594-5.794,5.794-5.794h6.816c3.2,0,5.794,2.594,5.794,5.794
				v3.609l10.738-9.344c1.089-0.948,2.446-1.423,3.803-1.423c1.339,0,2.679,0.462,3.764,1.389l49.449,42.261
				c1.845,1.576,2.511,4.134,1.671,6.41c-0.84,2.276-3.01,3.788-5.436,3.788h-16.277v35.103c0,3.2-2.594,5.794-5.793,5.794H116.173
				L116.173,190.337z"/>
			<path fill="#DAF3DA" d="M143.324,101.386l49.449,42.261h-22.07v22.892v18.006h-54.529v-18.006v-22.892H99.169l17.004-18.314
				v-14.849v-7.734h6.816v16.331L143.324,101.386 M143.324,89.798c-0.018,0-0.035,0-0.052,0c-2.778,0.013-5.459,1.022-7.555,2.846
				l-3.524,3.066c-0.309-0.404-0.646-0.791-1.011-1.154c-2.173-2.173-5.12-3.394-8.193-3.394h-6.816
				c-3.073,0-6.021,1.221-8.193,3.394c-2.173,2.173-3.394,5.12-3.394,8.193v7.734v10.299l-13.908,14.979
				c-3.136,3.377-3.972,8.292-2.13,12.516s6.013,6.955,10.622,6.955h5.416v11.305v18.006c0,3.072,1.221,6.02,3.394,8.193
				c2.173,2.173,5.12,3.394,8.193,3.394h54.53c3.072,0,6.02-1.221,8.193-3.394c2.173-2.174,3.394-5.121,3.394-8.193v-18.006v-11.305
				h10.483c4.853,0,9.19-3.022,10.871-7.574c1.68-4.552,0.346-9.669-3.343-12.821l-49.449-42.261
				C148.753,90.783,146.083,89.798,143.324,89.798L143.324,89.798z"/>
		</g>
	</g>
</g>
<g id="Personator" display="none">
	<g id="V1_1_" display="inline">
		<g>
			<path fill="#EEF8FD" d="M134.57,134.156c-6.521,0-12.848-1.362-18.802-4.048c-5.723-2.582-10.855-6.27-15.254-10.961
				c-4.375-4.666-7.807-10.094-10.201-16.133c-2.471-6.231-3.724-12.845-3.724-19.657c0-6.81,1.253-13.423,3.724-19.654
				c2.395-6.039,5.826-11.468,10.2-16.135c4.399-4.694,9.531-8.383,15.253-10.966c5.955-2.688,12.282-4.051,18.803-4.051
				c6.515,0,12.835,1.363,18.787,4.052c5.718,2.583,10.848,6.272,15.244,10.966c4.373,4.667,7.805,10.096,10.199,16.134
				c2.471,6.233,3.725,12.846,3.725,19.655c0,6.811-1.254,13.425-3.725,19.657c-2.395,6.038-5.826,11.465-10.199,16.131
				c-4.397,4.692-9.527,8.38-15.246,10.962C147.404,132.794,141.084,134.156,134.57,134.156z"/>
			<path fill="#3D6380" d="M134.57,38.345c23.262,0,42.16,20.156,42.16,45.013c0,24.864-18.898,45.005-42.16,45.005
				c-23.296,0-42.187-20.141-42.187-45.005C92.383,58.501,111.273,38.345,134.57,38.345 M134.57,26.757
				c-3.691,0-7.384,0.397-10.973,1.182c-3.497,0.763-6.933,1.901-10.213,3.382c-3.205,1.447-6.292,3.234-9.175,5.312
				c-2.838,2.046-5.503,4.392-7.922,6.973c-2.406,2.567-4.588,5.389-6.487,8.387c-1.91,3.016-3.548,6.237-4.872,9.575
				c-1.344,3.39-2.376,6.935-3.067,10.537c-0.706,3.683-1.064,7.469-1.064,11.253c0,3.785,0.358,7.572,1.064,11.255
				c0.691,3.602,1.723,7.147,3.067,10.537c1.323,3.337,2.962,6.559,4.873,9.574c1.898,2.997,4.081,5.818,6.487,8.385
				c2.419,2.58,5.084,4.925,7.923,6.971c2.883,2.077,5.97,3.864,9.175,5.31c3.281,1.48,6.717,2.617,10.213,3.38
				c3.589,0.784,7.281,1.181,10.972,1.181c3.688,0,7.377-0.397,10.964-1.181c3.493-0.763,6.927-1.9,10.206-3.381
				c3.203-1.446,6.287-3.232,9.169-5.31c2.837-2.045,5.501-4.39,7.919-6.97c2.406-2.567,4.588-5.388,6.486-8.385
				c1.909-3.015,3.549-6.236,4.872-9.573c1.345-3.39,2.376-6.936,3.067-10.537c0.707-3.684,1.064-7.471,1.064-11.256
				c0-3.785-0.357-7.571-1.064-11.254c-0.691-3.601-1.723-7.146-3.067-10.536c-1.323-3.337-2.962-6.558-4.872-9.574
				c-1.897-2.997-4.079-5.819-6.484-8.386c-2.418-2.581-5.082-4.926-7.918-6.972c-2.883-2.079-5.967-3.866-9.17-5.313
				c-3.279-1.481-6.713-2.619-10.207-3.383C141.948,27.155,138.258,26.757,134.57,26.757L134.57,26.757z"/>
		</g>
		<g>
			<path fill="#EEF8FD" d="M63.388,247.744v-64.824c0-6.084,1.174-12.074,3.489-17.801c2.215-5.479,5.442-10.643,9.592-15.348
				c4.035-4.575,8.875-8.641,14.385-12.085c5.5-3.438,11.578-6.198,18.062-8.204l2.396-0.741l2.18,1.24
				c6.626,3.767,13.798,5.677,21.316,5.677c7.373,0,14.429-1.857,20.976-5.521l2.189-1.226l2.393,0.76
				c8.578,2.722,16.324,6.725,23.023,11.896l9.729,7.511l-2.674,0.607c1.331,1.816,2.752,3.941,4.164,6.371
				c3.095,5.32,5.559,11.066,7.324,17.078c2.199,7.486,3.313,15.404,3.313,23.531v51.08H63.388L63.388,247.744z"/>
			<path fill="#3D6380" d="M110.629,135.017c7.21,4.099,15.436,6.435,24.18,6.435c8.595,0,16.685-2.274,23.806-6.26
				c7.979,2.533,15.186,6.291,21.234,10.959l-0.101,0.022c0,0,19.706,17.283,19.706,50.49v45.286H69.182v-59.03
				C69.182,161.113,86.385,142.516,110.629,135.017 M111.996,122.464l-4.791,1.482c-6.963,2.154-13.497,5.124-19.421,8.826
				c-5.986,3.741-11.255,8.171-15.66,13.166c-4.585,5.198-8.157,10.921-10.618,17.009c-2.596,6.421-3.912,13.141-3.912,19.973v59.03
				v11.588h11.587h130.273h11.587V241.95v-45.286c0-8.68-1.194-17.146-3.548-25.164c-1.858-6.325-4.438-12.381-7.671-18.005
				l6.569-1.493l-19.463-15.023c-3.577-2.762-7.496-5.251-11.648-7.4c-4.16-2.153-8.588-3.98-13.161-5.432l-4.784-1.519
				l-4.381,2.452c-5.671,3.174-11.776,4.784-18.146,4.784c-6.501,0-12.71-1.656-18.453-4.92L111.996,122.464L111.996,122.464z"/>
		</g>
		<g>
			<path fill="#DAF3DA" d="M161.771,230.416L161.771,230.416c-3.56,0-6.27-2.005-7.568-3.199l-0.068-0.062l-0.063-0.067
				c-0.233-0.245-0.547-0.573-0.906-0.935l-0.018-0.018l-0.017-0.019c-7.408-7.715-24.289-24.402-40.434-38.756l-0.032-0.028
				l-0.031-0.029c-2.251-2.131-3.728-3.428-4.064-3.722c-1.896-1.409-5.043-4.354-5.597-8.661c-0.409-3.178,0.663-6.364,3.187-9.471
				c6.791-8.374,11.676-11.203,13.072-11.896c0.968-0.709,3.96-2.63,7.99-2.63c1.563,0,3.104,0.295,4.583,0.876l0.036,0.015
				c0,0,0.054,0.022,0.11,0.046c0.41,0.167,0.787,0.341,1.153,0.532l0.029,0.016l0.029,0.017c0.723,0.4,2.124,1.321,5.933,4.676
				c2.169,1.91,4.877,4.396,8.048,7.387c5.129,4.84,9.963,9.584,10.562,10.184c0.204,0.199,0.396,0.388,0.576,0.564
				c0.168,0.164,0.345,0.338,0.51,0.499c1.674-2.476,6.526-9.259,15.319-18.569c6.396-6.771,13.568-13.488,21.321-19.967
				c9.678-8.086,20.294-15.823,31.554-22.993l0.109-0.07l0.117-0.06c2.605-1.328,5.065-2.001,7.311-2.001
				c3.332,0,5.53,1.489,6.498,2.238l0.025,0.012l0.277,0.223c0.68,0.546,1.105,1.015,1.243,1.172c1.274,1.26,3.022,3.154,4.3,4.657
				c3.607,4.071,5.173,6.022,6.954,8.395l0.241,0.322c0.027,0.035,0.057,0.071,0.084,0.107c0.594,0.755,1.331,1.695,1.729,2.294
				l0.053,0.079l0.047,0.083c1.003,1.767,1.567,3.396,1.727,4.982c0.154,1.548-0.092,3.039-0.735,4.431
				c-1.08,2.338-3.032,3.967-4.919,5.542l-0.509,0.426l-0.265,0.137c-0.088,0.047-9.135,4.812-23.073,16.275
				c-12.866,10.582-32.649,29.199-53.83,57.794l-0.024,0.034l-0.027,0.033c-0.009,0.012-0.936,1.186-1.385,1.771l-0.018,0.023
				c-0.415,0.529-0.785,1.004-1.109,1.448l-0.031,0.042l-0.032,0.041C168.707,228.47,165.351,230.416,161.771,230.416z"/>
			<g>
				<path fill="#3D6380" d="M234.521,114.799c2.426,0,4.017,1.011,5.076,1.864c0,0,0,0,0.017,0.007
					c0.587,0.472,0.901,0.845,0.901,0.845s0.017,0.03,0.051,0.061c1.308,1.286,3.059,3.194,4.239,4.586
					c3.485,3.933,5.058,5.879,6.833,8.245c0,0.038,0.034,0.054,0.043,0.069c0.552,0.708,1.512,1.909,1.92,2.525
					c3.468,6.108-0.094,8.831-3.586,11.751c0,0-36.378,18.894-77.838,74.866c0,0-0.943,1.194-1.41,1.803
					c-0.418,0.533-0.809,1.035-1.164,1.521c-2.85,3.602-5.551,4.746-7.832,4.746c-2.569,0-4.605-1.452-5.723-2.479
					c-0.289-0.304-0.604-0.632-0.951-0.981c-6.799-7.081-23.819-23.997-40.589-38.905c-2.651-2.509-4.232-3.871-4.232-3.871
					c-2.49-1.825-7.907-7.013-2-14.284c7.426-9.158,12.38-11.272,12.38-11.272s2.743-2.246,6.565-2.246
					c1.117,0,2.326,0.192,3.585,0.687c0,0,0.056,0.023,0.09,0.039c0.318,0.129,0.624,0.266,0.942,0.433
					c4.143,2.298,23.691,21.533,23.954,21.808c1.004,0.98,1.717,1.695,2.023,1.939c0.416,0.361,0.805,0.491,1.148,0.491
					c0.88,0,1.469-0.849,1.469-0.849s19.085-30.531,68.015-61.693C230.906,115.25,232.9,114.799,234.521,114.799 M234.521,109.346
					c-2.68,0-5.556,0.773-8.549,2.298l-0.232,0.119l-0.221,0.141c-11.357,7.233-22.069,15.04-31.837,23.201
					c-7.835,6.546-15.087,13.338-21.555,20.187c-6.698,7.093-11.169,12.776-13.713,16.251c-1.876-1.838-5.52-5.377-9.401-9.039
					c-3.193-3.013-5.924-5.52-8.117-7.45c-3.963-3.49-5.509-4.513-6.413-5.015l-0.058-0.032l-0.059-0.03
					c-0.434-0.228-0.878-0.434-1.356-0.629c-0.05-0.021-0.096-0.04-0.131-0.055l-0.039-0.016l-0.038-0.016
					c-1.797-0.707-3.675-1.064-5.581-1.064c-2.379,0-4.829,0.575-7.086,1.664c-1.024,0.494-1.814,0.998-2.328,1.359
					c-0.79,0.411-2.122,1.195-3.89,2.561c-3.208,2.479-6.531,5.824-9.875,9.949l0,0c-1.502,1.849-2.583,3.775-3.211,5.725
					c-0.622,1.928-0.812,3.884-0.563,5.813c0.673,5.231,4.327,8.735,6.585,10.435c0.426,0.372,1.827,1.613,3.906,3.58l0.062,0.059
					l0.063,0.057c16.086,14.301,32.902,30.923,40.279,38.606l0.034,0.036l0.035,0.035c0.266,0.267,0.53,0.54,0.86,0.887l0.127,0.135
					l0.137,0.125c1.092,1.006,2.285,1.838,3.544,2.477c1.89,0.957,3.865,1.442,5.87,1.442c2.188,0,4.328-0.577,6.365-1.716
					c2.033-1.138,3.966-2.854,5.743-5.1l0.063-0.082l0.062-0.083c0.302-0.411,0.656-0.867,1.056-1.378l0.018-0.021l0.017-0.022
					c0.438-0.569,1.353-1.729,1.362-1.741l0.053-0.066l0.049-0.067c21.086-28.466,40.757-46.956,53.545-57.454
					c13.678-11.228,22.34-15.773,22.425-15.818l0.528-0.274l0.457-0.382c0.093-0.078,0.186-0.155,0.278-0.232
					c2.021-1.686,4.31-3.596,5.647-6.492c0.85-1.84,1.177-3.807,0.973-5.846c-0.197-1.972-0.874-3.953-2.068-6.057l-0.094-0.165
					l-0.104-0.157c-0.425-0.64-1.063-1.462-1.855-2.471c-0.022-0.028-0.044-0.056-0.065-0.083l-0.225-0.3
					c-1.781-2.373-3.439-4.441-7.075-8.544c-1.317-1.549-3.046-3.422-4.374-4.742c-0.266-0.297-0.773-0.827-1.52-1.426l-0.556-0.446
					l-0.081-0.036c-0.866-0.633-1.743-1.137-2.663-1.534C238.103,109.702,236.35,109.346,234.521,109.346L234.521,109.346z"/>
			</g>
		</g>
	</g>
	<g id="V3_1_" display="inline">
		<g>
			<path fill="#EEF8FD" d="M138.009,28.772c5.499,0,10.835,1.152,15.863,3.423c2.427,1.096,4.771,2.455,6.966,4.038
				c2.184,1.575,4.238,3.386,6.109,5.382c1.877,2.003,3.582,4.209,5.068,6.556c1.504,2.376,2.796,4.917,3.841,7.552
				c2.181,5.499,3.286,11.346,3.286,17.379c0,6.035-1.105,11.884-3.286,17.382c-1.045,2.635-2.337,5.175-3.841,7.55
				c-1.486,2.346-3.191,4.551-5.068,6.554c-1.869,1.995-3.925,3.805-6.108,5.379c-2.194,1.583-4.538,2.94-6.966,4.036
				c-5.027,2.27-10.364,3.42-15.864,3.42c-5.509,0-10.854-1.151-15.887-3.421c-2.429-1.096-4.774-2.454-6.971-4.036
				c-2.185-1.574-4.24-3.384-6.111-5.379c-1.877-2.002-3.582-4.207-5.068-6.553c-1.504-2.375-2.796-4.915-3.841-7.549
				c-2.18-5.499-3.285-11.347-3.285-17.382c0-6.034,1.105-11.881,3.285-17.38c1.045-2.635,2.337-5.176,3.841-7.551
				c1.486-2.347,3.191-4.553,5.069-6.556c1.871-1.996,3.927-3.807,6.111-5.381c2.196-1.583,4.541-2.942,6.97-4.039
				C127.156,29.924,132.5,28.772,138.009,28.772 M138.009,22.662c-26.105,0-47.273,22.586-47.273,50.439
				c0,27.863,21.168,50.432,47.273,50.432c26.067,0,47.245-22.569,47.245-50.432C185.253,45.248,164.076,22.662,138.009,22.662
				L138.009,22.662z"/>
		</g>
		<g>
			<path fill="#EEF8FD" d="M110.589,137.611c8.598,4.391,18.112,6.7,27.688,6.7c9.385,0,18.739-2.24,27.219-6.498
				c3.244,1.147,6.381,2.503,9.357,4.042c3.196,1.654,6.224,3.53,9.018,5.586l0.734,0.645c0.048,0.042,4.906,4.418,9.788,12.812
				c2.958,5.087,5.317,10.589,7.01,16.354c2.125,7.234,3.202,14.912,3.202,22.816v44.636H70.847v-60.038
				c0-10.311,3.979-20.273,11.507-28.809c3.715-4.213,8.206-7.978,13.348-11.191C100.265,141.816,105.262,139.448,110.589,137.611
				 M111.181,130.989c-27.167,8.404-46.444,29.244-46.444,53.678v66.148h145.98V200.07c0-37.211-22.082-56.578-22.082-56.578
				l0.113-0.025c-6.778-5.232-14.854-9.443-23.795-12.281c-7.98,4.466-17.045,7.015-26.676,7.015
				C128.478,138.2,119.26,135.583,111.181,130.989L111.181,130.989z"/>
		</g>
		<path fill="#3E6380" stroke="#DAF3DA" stroke-width="170" stroke-miterlimit="10" d="M253.601,133.001
			c-0.408-0.616-1.368-1.818-1.92-2.525c-0.009-0.015-0.043-0.031-0.043-0.069c-1.775-2.365-3.348-4.312-6.833-8.245
			c-1.181-1.392-2.932-3.301-4.239-4.586c-0.034-0.031-0.051-0.061-0.051-0.061s-0.314-0.373-0.901-0.845
			c-0.017-0.007-0.017-0.007-0.017-0.007l0,0c-1.768-1.422-5.014-3.286-11.149-0.16c-48.93,31.163-68.015,61.693-68.015,61.693
			s-1.139,1.644-2.617,0.358c-0.307-0.245-1.02-0.959-2.023-1.94c-0.263-0.273-19.811-19.509-23.954-21.807
			c-0.319-0.167-0.624-0.305-0.943-0.433c-0.034-0.016-0.089-0.039-0.089-0.039c-5.57-2.19-10.15,1.559-10.15,1.559
			s-4.954,2.115-12.381,11.273c-5.906,7.271-0.489,12.459,2.001,14.284c0,0,1.581,1.361,4.232,3.87l0,0
			c16.77,14.909,33.791,31.825,40.589,38.906c0.348,0.35,0.662,0.678,0.951,0.981c2.107,1.938,7.495,5.392,13.555-2.267l0,0
			c0.355-0.486,0.746-0.988,1.164-1.521c0.467-0.608,1.41-1.803,1.41-1.803c41.46-55.973,77.838-74.866,77.838-74.866
			C253.507,141.832,257.068,139.109,253.601,133.001z"/>
	</g>
</g>
<g id="IPLocator" display="none">
	<g display="inline">
		<path fill="#EEF8FD" stroke="#3D6380" stroke-width="169.9871" stroke-miterlimit="10" d="M248.463,196.463
			c0-4.718-3.825-8.543-8.544-8.543H46.956c-4.718,0-8.543,3.825-8.543,8.543v38.927c0,4.719,3.825,8.543,8.543,8.543h192.964
			c4.719,0,8.544-3.824,8.544-8.543V196.463z"/>
		<path fill="#DAF3DA" stroke="#3D6380" stroke-width="79.9939" stroke-miterlimit="10" d="M222.556,224.711
			c-6.291,0-11.392-5.101-11.392-11.392s5.101-11.391,11.392-11.391s11.391,5.1,11.391,11.391S228.847,224.711,222.556,224.711z"/>
		<g>
			<path fill="#DAF3DA" stroke="#3D6380" stroke-width="79.9939" stroke-miterlimit="10" d="M47.287,70.96l11.491,19.68
				c25.241-15.523,54.917-24.498,86.659-24.498c30.426,0,58.941,8.27,83.482,22.623L240.405,69.1
				c-27.919-16.332-60.354-25.74-94.968-25.74C109.512,43.36,75.9,53.46,47.287,70.96z"/>
			<path fill="#DAF3DA" stroke="#3D6380" stroke-width="79.9939" stroke-miterlimit="10" d="M68.765,107.741l11.491,19.68
				c18.928-11.832,41.263-18.698,65.182-18.698c22.602,0,43.785,6.139,62.023,16.795l11.48-19.665
				c-21.609-12.634-46.717-19.912-73.504-19.912C117.333,85.94,91.068,93.934,68.765,107.741z"/>
			<path fill="#DAF3DA" stroke="#3D6380" stroke-width="79.9939" stroke-miterlimit="10" d="M90.409,144.81l11.494,19.681
				c12.298-7.863,26.89-12.444,42.539-12.444c14.945,0,28.935,4.165,40.876,11.387l11.482-19.664
				c-15.314-9.2-33.228-14.504-52.358-14.504C124.607,129.265,106.091,134.976,90.409,144.81z"/>
		</g>
	</g>
	<g id="V1_2_" display="inline">
		<path fill="#EEF8FD" d="M248.463,196.463c0-4.718-3.825-8.543-8.544-8.543H46.956c-4.718,0-8.543,3.825-8.543,8.543v38.927
			c0,4.719,3.825,8.543,8.543,8.543h192.964c4.719,0,8.544-3.824,8.544-8.543V196.463z"/>
		<path fill="#3D6380" d="M239.921,249.723H46.957c-7.904,0-14.338-6.431-14.338-14.331v-38.927c0-7.907,6.434-14.338,14.338-14.338
			h192.965c7.902,0,14.332,6.431,14.332,14.338v38.927C254.253,243.292,247.824,249.723,239.921,249.723z M46.957,193.709
			c-1.518,0-2.749,1.238-2.749,2.756v38.927c0,1.518,1.231,2.749,2.749,2.749h192.965c1.519,0,2.75-1.231,2.75-2.749v-38.927
			c0-1.518-1.231-2.756-2.75-2.756H46.957z"/>
		<path fill="#DAF3DA" d="M222.556,224.711c-6.291,0-11.392-5.101-11.392-11.392s5.101-11.391,11.392-11.391
			s11.391,5.1,11.391,11.391S228.847,224.711,222.556,224.711z"/>
		<path fill="#3D6380" d="M222.556,227.437c-7.781,0-14.119-6.336-14.119-14.117s6.338-14.119,14.119-14.119
			s14.117,6.338,14.117,14.119S230.337,227.437,222.556,227.437z M222.556,204.66c-4.779,0-8.66,3.881-8.66,8.66
			s3.881,8.66,8.66,8.66s8.659-3.881,8.659-8.66S227.335,204.66,222.556,204.66z"/>
		<path fill="#DAF3DA" d="M47.287,70.96l11.491,19.68c25.241-15.523,54.917-24.498,86.659-24.498
			c30.426,0,58.941,8.27,83.482,22.623L240.405,69.1c-27.919-16.332-60.354-25.74-94.968-25.74
			C109.512,43.36,75.9,53.46,47.287,70.96z"/>
		<path fill="#3D6380" d="M57.83,94.423L43.585,70.027l2.28-1.395c29.954-18.318,64.388-28,99.573-28
			c33.824,0,67.14,9.029,96.341,26.113l2.35,1.375l-14.23,24.375l-2.357-1.377c-24.881-14.554-53.277-22.249-82.103-22.249
			c-30.13,0-59.604,8.331-85.232,24.093L57.83,94.423z M50.997,71.908l8.74,14.967c25.923-15.356,55.491-23.457,85.701-23.457
			c28.886,0,57.349,7.472,82.489,21.637l8.733-14.96c-27.79-15.716-59.275-24.01-91.223-24.01
			C112.149,46.084,79.553,55.007,50.997,71.908z"/>
		<path fill="#DAF3DA" d="M68.765,107.741l11.491,19.68c18.928-11.832,41.263-18.698,65.182-18.698
			c22.602,0,43.785,6.139,62.023,16.795l11.48-19.665c-21.609-12.634-46.717-19.912-73.504-19.912
			C117.333,85.94,91.068,93.934,68.765,107.741z"/>
		<path fill="#3D6380" d="M79.316,131.223l-14.248-24.399l2.26-1.401c23.47-14.527,50.482-22.209,78.109-22.209
			c26.29,0,52.183,7.013,74.881,20.286l2.35,1.375l-14.231,24.375l-2.355-1.378c-18.386-10.743-39.354-16.421-60.644-16.421
			c-22.562,0-44.604,6.324-63.738,18.285L79.316,131.223z M72.471,108.684l8.736,14.964c19.437-11.556,41.583-17.649,64.231-17.649
			c21.344,0,42.384,5.461,61.028,15.815l8.734-14.96c-21.287-11.908-45.351-18.188-69.763-18.188
			C119.711,88.665,94.543,95.578,72.471,108.684z"/>
		<path fill="#DAF3DA" d="M90.409,144.81l11.494,19.681c12.298-7.863,26.89-12.444,42.539-12.444
			c14.945,0,28.935,4.165,40.876,11.387l11.482-19.664c-15.314-9.2-33.228-14.504-52.358-14.504
			C124.607,129.265,106.091,134.976,90.409,144.81z"/>
		<path fill="#3D6380" d="M100.98,168.316l-14.258-24.412l2.24-1.405c16.654-10.44,35.838-15.958,55.481-15.958
			c18.951,0,37.542,5.148,53.764,14.894l2.31,1.385l-14.237,24.385l-2.371-1.438c-24.348-14.71-56.492-14.345-80.538,1.019
			L100.98,168.316z M94.114,145.748l8.737,14.96c24.625-14.581,56.569-14.937,81.484-0.999l8.739-14.957
			C162.855,127.715,124.031,128.081,94.114,145.748z"/>
	</g>
	<g id="V2_1_" display="inline">
		<path fill="#EEF8FD" d="M245.605,199.886c0-4.718-3.826-8.543-8.543-8.543H42.899c-4.718,0-8.543,3.825-8.543,8.543v37.516
			c0,4.719,3.825,8.543,8.543,8.543h194.162c4.718,0,8.544-3.824,8.544-8.543V199.886L245.605,199.886z M222.556,224.711
			c-6.291,0-11.392-5.101-11.392-11.392s5.101-11.391,11.392-11.391s11.391,5.1,11.391,11.391S228.847,224.711,222.556,224.711z"/>
		<path fill="#DAF3DA" d="M47.287,70.96l11.491,19.68c25.241-15.523,54.917-24.498,86.659-24.498
			c30.426,0,58.941,8.27,83.482,22.623L240.405,69.1c-27.919-16.332-60.354-25.74-94.968-25.74
			C109.512,43.36,75.9,53.46,47.287,70.96z"/>
		<path fill="#DAF3DA" d="M68.765,107.741l11.491,19.68c18.928-11.832,41.263-18.698,65.182-18.698
			c22.602,0,43.785,6.139,62.023,16.795l11.48-19.665c-21.609-12.634-46.717-19.912-73.504-19.912
			C117.333,85.94,91.068,93.934,68.765,107.741z"/>
		<path fill="#DAF3DA" d="M90.409,144.81l11.494,19.681c12.298-7.863,26.89-12.444,42.539-12.444
			c14.945,0,28.935,4.165,40.876,11.387l11.482-19.664c-15.314-9.2-33.228-14.504-52.358-14.504
			C124.607,129.265,106.091,134.976,90.409,144.81z"/>
	</g>
	<g id="V3" display="inline">
		<path fill="none" stroke="#EEF8FD" stroke-width="80" stroke-miterlimit="10" d="M248.467,196.478
			c0-4.718-3.825-8.543-8.544-8.543H46.989c-4.718,0-8.543,3.825-8.543,8.543v38.947c0,4.718,3.825,8.543,8.543,8.543h192.934
			c4.719,0,8.544-3.825,8.544-8.543V196.478z M222.556,224.711c-6.291,0-11.392-5.101-11.392-11.392s5.101-11.391,11.392-11.391
			s11.391,5.1,11.391,11.391S228.847,224.711,222.556,224.711z"/>
		<g>
			<path fill="none" stroke="#DAF3DA" stroke-width="169.9871" stroke-miterlimit="10" d="M58.778,77.007
				c25.241-15.524,54.917-24.498,86.659-24.498c30.426,0,58.941,8.27,83.482,22.622"/>
			<path fill="none" stroke="#DAF3DA" stroke-width="169.9871" stroke-miterlimit="10" d="M80.255,113.788
				c18.928-11.832,41.263-18.698,65.182-18.698c22.602,0,43.785,6.139,62.023,16.795"/>
			<path fill="none" stroke="#DAF3DA" stroke-width="169.9871" stroke-miterlimit="10" d="M101.903,150.857
				c12.298-7.863,26.89-12.443,42.539-12.443c14.945,0,28.935,4.165,40.876,11.387"/>
		</g>
	</g>
</g>
<g id="Profiler">
	<g display="none">
		<path display="inline" fill="#DAF3DA" stroke="#3D6380" stroke-width="79.9939" stroke-miterlimit="10" d="M112.53,184.113
			c13.343,10.052,29.939,16.015,47.933,16.015c44.045,0,79.748-35.705,79.748-79.748c0-44.042-35.703-79.747-79.748-79.747
			S80.715,76.338,80.715,120.38c0,17.801,5.837,34.235,15.693,47.506c-0.029,0.025-0.064,0.042-0.094,0.07L34.15,230.123
			c-2.515,2.516-1.864,7.242,1.449,10.555l4.186,4.186c3.313,3.313,8.04,3.962,10.555,1.449l62.163-62.166
			C112.514,184.135,112.519,184.122,112.53,184.113z M160.462,58.948c33.928,0,61.432,27.504,61.432,61.432
			c0,33.928-27.504,61.432-61.432,61.432S99.03,154.308,99.03,120.38C99.03,86.453,126.535,58.948,160.462,58.948z"/>
		<g display="inline">
			<path fill="#EEF8FD" stroke="#3D6380" stroke-width="69.995" stroke-miterlimit="10" d="M136.726,154.136
				c-3.98,1.604-7.823,3.594-11.511,5.913c9.384,8.347,21.73,13.432,35.248,13.432c13.99,0,26.725-5.446,36.219-14.32
				c-3.242-1.938-6.597-3.63-10.058-5.024c11.907-8.027,19.736-21.637,19.736-37.077c0-24.68-20.005-44.686-44.685-44.686
				s-44.688,20.006-44.688,44.686C116.987,132.499,124.819,146.109,136.726,154.136z"/>
			<path fill="#EEF8FD" stroke="#3D6380" stroke-width="69.995" stroke-miterlimit="10" d="M222.236,183.087
				c-15.91,15.676-37.727,25.371-61.773,25.371c-16.824,0-32.911-4.66-46.947-13.543l-30.81,30.811
				c-0.999,4.764-1.736,9.662-2.184,14.67H242.83C240.867,218.457,233.409,198.618,222.236,183.087z"/>
		</g>
	</g>
	<g>
		<g id="jCzoDx.tif">
			
				<image overflow="visible" width="225" height="225" id="Layer_0_1_" xlink:href="6B538AAF776223AF.png"  transform="matrix(1 0 0 1 39 40.6328)">
			</image>
		</g>
		<g>
			<path fill="#DAF3DA" d="M112.53,184.113c13.343,10.052,29.939,16.015,47.933,16.015c44.045,0,79.748-35.705,79.748-79.748
				c0-44.042-35.703-79.747-79.748-79.747S80.715,76.338,80.715,120.38c0,17.801,5.837,34.235,15.693,47.506
				c-0.029,0.025-0.064,0.042-0.094,0.07L34.15,230.123c-2.515,2.516-1.864,7.242,1.449,10.555l4.186,4.186
				c3.313,3.313,8.04,3.962,10.555,1.449l62.163-62.166C112.514,184.135,112.519,184.122,112.53,184.113z M160.462,58.948
				c33.928,0,61.432,27.504,61.432,61.432c0,33.928-27.504,61.432-61.432,61.432S99.03,154.308,99.03,120.38
				C99.03,86.453,126.535,58.948,160.462,58.948z"/>
			<path fill="#3D6380" d="M46.373,250.569L46.373,250.569c-3.011,0-6.115-1.377-8.516-3.778l-4.186-4.186
				c-2.021-2.021-3.329-4.554-3.683-7.133c-0.387-2.818,0.427-5.471,2.234-7.277l60.608-60.61
				c-4.503-6.439-8.047-13.454-10.549-20.883c-2.849-8.46-4.293-17.316-4.293-26.322c0-11.132,2.181-21.933,6.482-32.103
				c2.067-4.887,4.625-9.601,7.604-14.01c2.95-4.367,6.337-8.473,10.069-12.204s7.837-7.119,12.204-10.069
				c4.409-2.979,9.123-5.537,14.01-7.604c10.17-4.301,20.971-6.482,32.104-6.482s21.934,2.181,32.104,6.482
				c4.889,2.067,9.602,4.626,14.011,7.604c4.366,2.95,8.473,6.338,12.204,10.069s7.119,7.837,10.068,12.204
				c2.979,4.409,5.538,9.123,7.605,14.01c4.301,10.17,6.482,20.971,6.482,32.103c0,11.133-2.182,21.934-6.482,32.103
				c-2.067,4.888-4.626,9.602-7.605,14.011c-2.949,4.366-6.337,8.473-10.068,12.203c-3.731,3.732-7.838,7.12-12.204,10.07
				c-4.409,2.979-9.122,5.537-14.011,7.604c-10.169,4.302-20.971,6.482-32.104,6.482c-9.104,0-18.049-1.476-26.589-4.384
				c-7.506-2.557-14.581-6.176-21.062-10.775L52.268,248.24C50.764,249.742,48.671,250.569,46.373,250.569z M98.114,170.012
				L36.079,232.05c-1.398,1.398-0.722,4.529,1.449,6.699l4.186,4.186c1.366,1.365,3.108,2.181,4.66,2.182
				c0.596,0,1.433-0.128,2.04-0.734l62.072-62.073c0.108-0.122,0.226-0.233,0.353-0.334l1.651-1.308l1.682,1.268
				c13.431,10.117,29.438,15.466,46.292,15.466c42.469,0,77.021-34.552,77.021-77.021s-34.553-77.021-77.021-77.021
				c-42.47,0-77.021,34.552-77.021,77.021c0,16.664,5.241,32.529,15.155,45.88l1.465,1.972l-1.81,1.662
				C98.204,169.938,98.158,169.977,98.114,170.012z M160.462,184.539c-8.66,0-17.062-1.697-24.974-5.043
				c-7.64-3.231-14.501-7.857-20.393-13.748c-5.892-5.893-10.517-12.753-13.749-20.393c-3.346-7.912-5.043-16.315-5.043-24.975
				c0-8.66,1.697-17.063,5.043-24.975c3.232-7.64,7.857-14.501,13.749-20.393c5.891-5.891,12.752-10.517,20.393-13.749
				c7.912-3.346,16.314-5.043,24.974-5.043s17.062,1.697,24.975,5.043c7.64,3.231,14.5,7.857,20.393,13.749
				c5.891,5.892,10.517,12.752,13.748,20.393c3.346,7.912,5.043,16.314,5.043,24.975c0,8.66-1.697,17.062-5.043,24.975
				c-3.231,7.64-7.857,14.5-13.748,20.393c-5.893,5.891-12.753,10.517-20.393,13.748
				C177.525,182.841,169.123,184.539,160.462,184.539z M160.462,61.674c-32.371,0-58.706,26.335-58.706,58.706
				c0,32.371,26.335,58.706,58.706,58.706c32.37,0,58.705-26.335,58.705-58.706C219.167,88.01,192.833,61.674,160.462,61.674z"/>
		</g>
	</g>
</g>
</svg>
